<mxfile host="Electron" modified="2024-02-28T20:36:16.263Z" agent="Mozilla/5.0 (Windows NT 10.0; Win64; x64) AppleWebKit/537.36 (KHTML, like Gecko) draw.io/23.1.5 Chrome/120.0.6099.109 Electron/28.1.0 Safari/537.36" etag="8FAlJGtekmo2N9hmnj-3" version="23.1.5" type="device" pages="3">
  <diagram name="C1" id="kPI0S30a3JTOGSrIHBgv">
    <mxGraphModel dx="584" dy="-256" grid="1" gridSize="10" guides="1" tooltips="1" connect="1" arrows="1" fold="1" page="1" pageScale="1" pageWidth="850" pageHeight="1100" math="0" shadow="0">
      <root>
        <mxCell id="0" />
        <mxCell id="1" parent="0" />
        <object placeholders="1" c4Name="NexusMeals" c4Type="Software System" c4Description="A system that connects customers to local chefs who cook meals from home." label="&lt;font style=&quot;font-size: 16px&quot;&gt;&lt;b&gt;%c4Name%&lt;/b&gt;&lt;/font&gt;&lt;div&gt;[%c4Type%]&lt;/div&gt;&lt;br&gt;&lt;div&gt;&lt;font style=&quot;font-size: 11px&quot;&gt;&lt;font color=&quot;#cccccc&quot;&gt;%c4Description%&lt;/font&gt;&lt;/div&gt;" id="w6xOuOf0DuLS4dTlmU8N-15">
          <mxCell style="rounded=1;whiteSpace=wrap;html=1;labelBackgroundColor=none;fillColor=#1061B0;fontColor=#ffffff;align=center;arcSize=10;strokeColor=#0D5091;metaEdit=1;resizable=0;points=[[0.25,0,0],[0.5,0,0],[0.75,0,0],[1,0.25,0],[1,0.5,0],[1,0.75,0],[0.75,1,0],[0.5,1,0],[0.25,1,0],[0,0.75,0],[0,0.5,0],[0,0.25,0]];" parent="1" vertex="1">
            <mxGeometry x="1155" y="1590" width="240" height="120" as="geometry" />
          </mxCell>
        </object>
        <mxCell id="gsXS03PVRyQy-m5rla5Y-3" style="edgeStyle=orthogonalEdgeStyle;rounded=0;orthogonalLoop=1;jettySize=auto;html=1;exitX=0.5;exitY=0;exitDx=0;exitDy=0;exitPerimeter=0;entryX=0.5;entryY=1;entryDx=0;entryDy=0;entryPerimeter=0;" parent="1" source="w6xOuOf0DuLS4dTlmU8N-20" target="w6xOuOf0DuLS4dTlmU8N-15" edge="1">
          <mxGeometry relative="1" as="geometry" />
        </mxCell>
        <mxCell id="gsXS03PVRyQy-m5rla5Y-4" value="browse chefs/&lt;br&gt;place orders" style="edgeLabel;html=1;align=center;verticalAlign=middle;resizable=0;points=[];" parent="gsXS03PVRyQy-m5rla5Y-3" vertex="1" connectable="0">
          <mxGeometry x="0.25" relative="1" as="geometry">
            <mxPoint y="25" as="offset" />
          </mxGeometry>
        </mxCell>
        <object placeholders="1" c4Name="Customer" c4Type="Person" c4Description="Responsible for placing orders/meal subscriptions." label="&lt;font style=&quot;font-size: 16px&quot;&gt;&lt;b&gt;%c4Name%&lt;/b&gt;&lt;/font&gt;&lt;div&gt;[%c4Type%]&lt;/div&gt;&lt;br&gt;&lt;div&gt;&lt;font style=&quot;font-size: 11px&quot;&gt;&lt;font color=&quot;#cccccc&quot;&gt;%c4Description%&lt;/font&gt;&lt;/div&gt;" id="w6xOuOf0DuLS4dTlmU8N-20">
          <mxCell style="html=1;fontSize=11;dashed=0;whiteSpace=wrap;fillColor=#083F75;strokeColor=#06315C;fontColor=#ffffff;shape=mxgraph.c4.person2;align=center;metaEdit=1;points=[[0.5,0,0],[1,0.5,0],[1,0.75,0],[0.75,1,0],[0.5,1,0],[0.25,1,0],[0,0.75,0],[0,0.5,0]];resizable=0;rounded=1;" parent="1" vertex="1">
            <mxGeometry x="1175" y="1830" width="200" height="180" as="geometry" />
          </mxCell>
        </object>
        <mxCell id="y-LhyhhcpIA8Ys3JYbUF-14" style="edgeStyle=orthogonalEdgeStyle;rounded=0;orthogonalLoop=1;jettySize=auto;html=1;exitX=0.5;exitY=1;exitDx=0;exitDy=0;exitPerimeter=0;entryX=0.25;entryY=0;entryDx=0;entryDy=0;entryPerimeter=0;" parent="1" source="w6xOuOf0DuLS4dTlmU8N-21" target="w6xOuOf0DuLS4dTlmU8N-15" edge="1">
          <mxGeometry relative="1" as="geometry" />
        </mxCell>
        <mxCell id="y-LhyhhcpIA8Ys3JYbUF-26" value="Deliver orders" style="edgeLabel;html=1;align=center;verticalAlign=middle;resizable=0;points=[];" parent="y-LhyhhcpIA8Ys3JYbUF-14" vertex="1" connectable="0">
          <mxGeometry x="-0.0659" relative="1" as="geometry">
            <mxPoint x="22" as="offset" />
          </mxGeometry>
        </mxCell>
        <object placeholders="1" c4Name="Courier" c4Type="Person" c4Description="Responsible for delivering customer orders." label="&lt;font style=&quot;font-size: 16px&quot;&gt;&lt;b&gt;%c4Name%&lt;/b&gt;&lt;/font&gt;&lt;div&gt;[%c4Type%]&lt;/div&gt;&lt;br&gt;&lt;div&gt;&lt;font style=&quot;font-size: 11px&quot;&gt;&lt;font color=&quot;#cccccc&quot;&gt;%c4Description%&lt;/font&gt;&lt;/div&gt;" id="w6xOuOf0DuLS4dTlmU8N-21">
          <mxCell style="html=1;fontSize=11;dashed=0;whiteSpace=wrap;fillColor=#083F75;strokeColor=#06315C;fontColor=#ffffff;shape=mxgraph.c4.person2;align=center;metaEdit=1;points=[[0.5,0,0],[1,0.5,0],[1,0.75,0],[0.75,1,0],[0.5,1,0],[0.25,1,0],[0,0.75,0],[0,0.5,0]];resizable=0;rounded=1;" parent="1" vertex="1">
            <mxGeometry x="920" y="1330" width="200" height="180" as="geometry" />
          </mxCell>
        </object>
        <mxCell id="gsXS03PVRyQy-m5rla5Y-1" style="edgeStyle=orthogonalEdgeStyle;rounded=0;orthogonalLoop=1;jettySize=auto;html=1;exitX=0.5;exitY=1;exitDx=0;exitDy=0;exitPerimeter=0;entryX=0.75;entryY=0;entryDx=0;entryDy=0;entryPerimeter=0;" parent="1" source="w6xOuOf0DuLS4dTlmU8N-23" target="w6xOuOf0DuLS4dTlmU8N-15" edge="1">
          <mxGeometry relative="1" as="geometry" />
        </mxCell>
        <mxCell id="gsXS03PVRyQy-m5rla5Y-2" value="Manage menu/orders" style="edgeLabel;html=1;align=center;verticalAlign=middle;resizable=0;points=[];" parent="gsXS03PVRyQy-m5rla5Y-1" vertex="1" connectable="0">
          <mxGeometry x="0.2679" y="1" relative="1" as="geometry">
            <mxPoint x="18" as="offset" />
          </mxGeometry>
        </mxCell>
        <object placeholders="1" c4Name="Chef" c4Type="Person" c4Description="Responsible for preparing ordered meals." label="&lt;font style=&quot;font-size: 16px&quot;&gt;&lt;b&gt;%c4Name%&lt;/b&gt;&lt;/font&gt;&lt;div&gt;[%c4Type%]&lt;/div&gt;&lt;br&gt;&lt;div&gt;&lt;font style=&quot;font-size: 11px&quot;&gt;&lt;font color=&quot;#cccccc&quot;&gt;%c4Description%&lt;/font&gt;&lt;/div&gt;" id="w6xOuOf0DuLS4dTlmU8N-23">
          <mxCell style="html=1;fontSize=11;dashed=0;whiteSpace=wrap;fillColor=#083F75;strokeColor=#06315C;fontColor=#ffffff;shape=mxgraph.c4.person2;align=center;metaEdit=1;points=[[0.5,0,0],[1,0.5,0],[1,0.75,0],[0.75,1,0],[0.5,1,0],[0.25,1,0],[0,0.75,0],[0,0.5,0]];resizable=0;rounded=1;" parent="1" vertex="1">
            <mxGeometry x="1420" y="1330" width="200" height="180" as="geometry" />
          </mxCell>
        </object>
        <mxCell id="y-LhyhhcpIA8Ys3JYbUF-29" style="edgeStyle=orthogonalEdgeStyle;rounded=0;orthogonalLoop=1;jettySize=auto;html=1;exitX=0.5;exitY=1;exitDx=0;exitDy=0;exitPerimeter=0;entryX=0.5;entryY=0;entryDx=0;entryDy=0;entryPerimeter=0;" parent="1" source="y-LhyhhcpIA8Ys3JYbUF-28" target="w6xOuOf0DuLS4dTlmU8N-15" edge="1">
          <mxGeometry relative="1" as="geometry" />
        </mxCell>
        <mxCell id="y-LhyhhcpIA8Ys3JYbUF-33" value="manage chefs/couriers;&amp;nbsp;&lt;br&gt;retrieve statistics" style="edgeLabel;html=1;align=center;verticalAlign=middle;resizable=0;points=[];" parent="y-LhyhhcpIA8Ys3JYbUF-29" vertex="1" connectable="0">
          <mxGeometry x="-0.1548" y="-1" relative="1" as="geometry">
            <mxPoint as="offset" />
          </mxGeometry>
        </mxCell>
        <object placeholders="1" c4Name="Administrator" c4Type="Person" c4Description="Responsible for analysing statistics and managing chef and courier accounts." label="&lt;font style=&quot;font-size: 16px&quot;&gt;&lt;b&gt;%c4Name%&lt;/b&gt;&lt;/font&gt;&lt;div&gt;[%c4Type%]&lt;/div&gt;&lt;br&gt;&lt;div&gt;&lt;font style=&quot;font-size: 11px&quot;&gt;&lt;font color=&quot;#cccccc&quot;&gt;%c4Description%&lt;/font&gt;&lt;/div&gt;" id="y-LhyhhcpIA8Ys3JYbUF-28">
          <mxCell style="html=1;fontSize=11;dashed=0;whiteSpace=wrap;fillColor=#083F75;strokeColor=#06315C;fontColor=#ffffff;shape=mxgraph.c4.person2;align=center;metaEdit=1;points=[[0.5,0,0],[1,0.5,0],[1,0.75,0],[0.75,1,0],[0.5,1,0],[0.25,1,0],[0,0.75,0],[0,0.5,0]];resizable=0;rounded=1;" parent="1" vertex="1">
            <mxGeometry x="1175" y="1160" width="200" height="180" as="geometry" />
          </mxCell>
        </object>
      </root>
    </mxGraphModel>
  </diagram>
  <diagram id="Ew3QDcwd0NlXxHf4VPYv" name="C2 - intended">
    <mxGraphModel dx="1434" dy="844" grid="1" gridSize="10" guides="1" tooltips="1" connect="1" arrows="1" fold="1" page="1" pageScale="1" pageWidth="850" pageHeight="1100" math="0" shadow="0">
      <root>
        <mxCell id="0" />
        <mxCell id="1" parent="0" />
        <mxCell id="iXwUmZw2ifD2mZiQY8Lr-19" style="edgeStyle=orthogonalEdgeStyle;rounded=0;orthogonalLoop=1;jettySize=auto;html=1;exitX=0.5;exitY=1;exitDx=0;exitDy=0;exitPerimeter=0;entryX=0.5;entryY=0;entryDx=0;entryDy=0;entryPerimeter=0;" parent="1" source="S9X2690wDx_Z-8uSn3eG-30" target="iXwUmZw2ifD2mZiQY8Lr-13" edge="1">
          <mxGeometry relative="1" as="geometry" />
        </mxCell>
        <mxCell id="iXwUmZw2ifD2mZiQY8Lr-20" value="graphql/https" style="edgeLabel;html=1;align=center;verticalAlign=middle;resizable=0;points=[];" parent="iXwUmZw2ifD2mZiQY8Lr-19" vertex="1" connectable="0">
          <mxGeometry x="-0.1714" relative="1" as="geometry">
            <mxPoint as="offset" />
          </mxGeometry>
        </mxCell>
        <object placeholders="1" c4Name="Front-End" c4Type="Container" c4Technology="React + TypeScript, Apollo Client" c4Description="Front end application which runs in a browser." label="&lt;font style=&quot;font-size: 16px&quot;&gt;&lt;b&gt;%c4Name%&lt;/b&gt;&lt;/font&gt;&lt;div&gt;[%c4Type%: %c4Technology%]&lt;/div&gt;&lt;br&gt;&lt;div&gt;&lt;font style=&quot;font-size: 11px&quot;&gt;&lt;font color=&quot;#E6E6E6&quot;&gt;%c4Description%&lt;/font&gt;&lt;/div&gt;" id="S9X2690wDx_Z-8uSn3eG-30">
          <mxCell style="rounded=1;whiteSpace=wrap;html=1;fontSize=11;labelBackgroundColor=none;fillColor=#23A2D9;fontColor=#ffffff;align=center;arcSize=10;strokeColor=#0E7DAD;metaEdit=1;resizable=0;points=[[0.25,0,0],[0.5,0,0],[0.75,0,0],[1,0.25,0],[1,0.5,0],[1,0.75,0],[0.75,1,0],[0.5,1,0],[0.25,1,0],[0,0.75,0],[0,0.5,0],[0,0.25,0]];" parent="1" vertex="1">
            <mxGeometry x="1155" y="720" width="240" height="120" as="geometry" />
          </mxCell>
        </object>
        <mxCell id="EPpzyMcfC1lIuWaVR3Jr-29" style="edgeStyle=orthogonalEdgeStyle;rounded=0;orthogonalLoop=1;jettySize=auto;html=1;exitX=0.5;exitY=1;exitDx=0;exitDy=0;exitPerimeter=0;" parent="1" source="iXwUmZw2ifD2mZiQY8Lr-13" target="iXwUmZw2ifD2mZiQY8Lr-26" edge="1">
          <mxGeometry relative="1" as="geometry" />
        </mxCell>
        <mxCell id="EPpzyMcfC1lIuWaVR3Jr-30" style="edgeStyle=orthogonalEdgeStyle;rounded=0;orthogonalLoop=1;jettySize=auto;html=1;exitX=0.5;exitY=1;exitDx=0;exitDy=0;exitPerimeter=0;entryX=0.5;entryY=0;entryDx=0;entryDy=0;entryPerimeter=0;" parent="1" source="iXwUmZw2ifD2mZiQY8Lr-13" target="iXwUmZw2ifD2mZiQY8Lr-15" edge="1">
          <mxGeometry relative="1" as="geometry">
            <Array as="points">
              <mxPoint x="1275" y="1290" />
              <mxPoint x="555" y="1290" />
            </Array>
          </mxGeometry>
        </mxCell>
        <mxCell id="EPpzyMcfC1lIuWaVR3Jr-31" style="edgeStyle=orthogonalEdgeStyle;rounded=0;orthogonalLoop=1;jettySize=auto;html=1;exitX=0.5;exitY=1;exitDx=0;exitDy=0;exitPerimeter=0;entryX=0.5;entryY=0;entryDx=0;entryDy=0;entryPerimeter=0;" parent="1" source="iXwUmZw2ifD2mZiQY8Lr-13" target="iXwUmZw2ifD2mZiQY8Lr-30" edge="1">
          <mxGeometry relative="1" as="geometry">
            <Array as="points">
              <mxPoint x="1275" y="1290" />
              <mxPoint x="795" y="1290" />
            </Array>
          </mxGeometry>
        </mxCell>
        <mxCell id="EPpzyMcfC1lIuWaVR3Jr-32" style="edgeStyle=orthogonalEdgeStyle;rounded=0;orthogonalLoop=1;jettySize=auto;html=1;exitX=0.5;exitY=1;exitDx=0;exitDy=0;exitPerimeter=0;entryX=0.5;entryY=0;entryDx=0;entryDy=0;entryPerimeter=0;" parent="1" source="iXwUmZw2ifD2mZiQY8Lr-13" target="EPpzyMcfC1lIuWaVR3Jr-10" edge="1">
          <mxGeometry relative="1" as="geometry">
            <Array as="points">
              <mxPoint x="1275" y="1290" />
              <mxPoint x="1035" y="1290" />
            </Array>
          </mxGeometry>
        </mxCell>
        <mxCell id="EPpzyMcfC1lIuWaVR3Jr-37" style="edgeStyle=orthogonalEdgeStyle;rounded=0;orthogonalLoop=1;jettySize=auto;html=1;exitX=0.5;exitY=1;exitDx=0;exitDy=0;exitPerimeter=0;entryX=1;entryY=0.5;entryDx=0;entryDy=0;entryPerimeter=0;" parent="1" source="iXwUmZw2ifD2mZiQY8Lr-13" target="EPpzyMcfC1lIuWaVR3Jr-6" edge="1">
          <mxGeometry relative="1" as="geometry">
            <Array as="points">
              <mxPoint x="1275" y="1290" />
              <mxPoint x="1068" y="1290" />
              <mxPoint x="1068" y="1025" />
            </Array>
          </mxGeometry>
        </mxCell>
        <mxCell id="EPpzyMcfC1lIuWaVR3Jr-43" style="edgeStyle=orthogonalEdgeStyle;rounded=0;orthogonalLoop=1;jettySize=auto;html=1;exitX=0.5;exitY=1;exitDx=0;exitDy=0;exitPerimeter=0;entryX=0;entryY=0.5;entryDx=0;entryDy=0;entryPerimeter=0;" parent="1" source="iXwUmZw2ifD2mZiQY8Lr-13" target="EPpzyMcfC1lIuWaVR3Jr-40" edge="1">
          <mxGeometry relative="1" as="geometry">
            <Array as="points">
              <mxPoint x="1275" y="1290" />
              <mxPoint x="1488" y="1290" />
              <mxPoint x="1488" y="1025" />
            </Array>
          </mxGeometry>
        </mxCell>
        <mxCell id="EPpzyMcfC1lIuWaVR3Jr-44" style="edgeStyle=orthogonalEdgeStyle;rounded=0;orthogonalLoop=1;jettySize=auto;html=1;exitX=0.5;exitY=1;exitDx=0;exitDy=0;exitPerimeter=0;entryX=0.5;entryY=0;entryDx=0;entryDy=0;entryPerimeter=0;" parent="1" source="iXwUmZw2ifD2mZiQY8Lr-13" target="iXwUmZw2ifD2mZiQY8Lr-34" edge="1">
          <mxGeometry relative="1" as="geometry">
            <Array as="points">
              <mxPoint x="1275" y="1290" />
              <mxPoint x="1515" y="1290" />
            </Array>
          </mxGeometry>
        </mxCell>
        <mxCell id="EPpzyMcfC1lIuWaVR3Jr-46" style="edgeStyle=orthogonalEdgeStyle;rounded=0;orthogonalLoop=1;jettySize=auto;html=1;exitX=0.5;exitY=1;exitDx=0;exitDy=0;exitPerimeter=0;entryX=0.5;entryY=0;entryDx=0;entryDy=0;entryPerimeter=0;" parent="1" source="iXwUmZw2ifD2mZiQY8Lr-13" target="iXwUmZw2ifD2mZiQY8Lr-38" edge="1">
          <mxGeometry relative="1" as="geometry">
            <Array as="points">
              <mxPoint x="1275" y="1290" />
              <mxPoint x="1995" y="1290" />
            </Array>
          </mxGeometry>
        </mxCell>
        <mxCell id="EPpzyMcfC1lIuWaVR3Jr-86" value="rest/https" style="edgeLabel;html=1;align=center;verticalAlign=middle;resizable=0;points=[];" parent="EPpzyMcfC1lIuWaVR3Jr-46" vertex="1" connectable="0">
          <mxGeometry x="-0.9166" relative="1" as="geometry">
            <mxPoint as="offset" />
          </mxGeometry>
        </mxCell>
        <object placeholders="1" c4Name="API Gateway" c4Type="Container" c4Technology="NestJS + TypeScript, Apollo Server" c4Description="Receives requests and routes them to microservices." label="&lt;font style=&quot;font-size: 16px&quot;&gt;&lt;b&gt;%c4Name%&lt;/b&gt;&lt;/font&gt;&lt;div&gt;[%c4Type%: %c4Technology%]&lt;/div&gt;&lt;br&gt;&lt;div&gt;&lt;font style=&quot;font-size: 11px&quot;&gt;&lt;font color=&quot;#E6E6E6&quot;&gt;%c4Description%&lt;/font&gt;&lt;/div&gt;" id="iXwUmZw2ifD2mZiQY8Lr-13">
          <mxCell style="rounded=1;whiteSpace=wrap;html=1;fontSize=11;labelBackgroundColor=none;fillColor=#23A2D9;fontColor=#ffffff;align=center;arcSize=10;strokeColor=#0E7DAD;metaEdit=1;resizable=0;points=[[0.25,0,0],[0.5,0,0],[0.75,0,0],[1,0.25,0],[1,0.5,0],[1,0.75,0],[0.75,1,0],[0.5,1,0],[0.25,1,0],[0,0.75,0],[0,0.5,0],[0,0.25,0]];" parent="1" vertex="1">
            <mxGeometry x="1155" y="1060" width="240" height="120" as="geometry" />
          </mxCell>
        </object>
        <mxCell id="iXwUmZw2ifD2mZiQY8Lr-14" value="" style="group" parent="1" vertex="1" connectable="0">
          <mxGeometry x="435" y="1540" width="240" height="340" as="geometry" />
        </mxCell>
        <object placeholders="1" c4Type="User" c4Container="Container" c4Technology="NestJS + TypeScript" c4Description="Handles authentication and authorization." label="&lt;font style=&quot;font-size: 16px&quot;&gt;&lt;b&gt;%c4Type%&lt;/b&gt;&lt;/font&gt;&lt;div&gt;[%c4Container%:&amp;nbsp;%c4Technology%]&lt;/div&gt;&lt;br&gt;&lt;div&gt;&lt;font style=&quot;font-size: 11px&quot;&gt;&lt;font color=&quot;#E6E6E6&quot;&gt;%c4Description%&lt;/font&gt;&lt;/div&gt;" id="iXwUmZw2ifD2mZiQY8Lr-15">
          <mxCell style="shape=hexagon;size=50;perimeter=hexagonPerimeter2;whiteSpace=wrap;html=1;fixedSize=1;rounded=1;labelBackgroundColor=none;fillColor=#23A2D9;fontSize=12;fontColor=#ffffff;align=center;strokeColor=#0E7DAD;metaEdit=1;points=[[0.5,0,0],[1,0.25,0],[1,0.5,0],[1,0.75,0],[0.5,1,0],[0,0.75,0],[0,0.5,0],[0,0.25,0]];resizable=0;" parent="iXwUmZw2ifD2mZiQY8Lr-14" vertex="1">
            <mxGeometry x="20" width="200" height="170" as="geometry" />
          </mxCell>
        </object>
        <object placeholders="1" c4Type="UserDB" c4Container="Container" c4Technology="MySQL" c4Description="Stores authentication credentials, and roles of users." label="&lt;font style=&quot;font-size: 16px&quot;&gt;&lt;b&gt;%c4Type%&lt;/b&gt;&lt;/font&gt;&lt;div&gt;[%c4Container%:&amp;nbsp;%c4Technology%]&lt;/div&gt;&lt;br&gt;&lt;div&gt;&lt;font style=&quot;font-size: 11px&quot;&gt;&lt;font color=&quot;#E6E6E6&quot;&gt;%c4Description%&lt;/font&gt;&lt;/div&gt;" id="iXwUmZw2ifD2mZiQY8Lr-16">
          <mxCell style="shape=cylinder3;size=15;whiteSpace=wrap;html=1;boundedLbl=1;rounded=0;labelBackgroundColor=none;fillColor=#23A2D9;fontSize=12;fontColor=#ffffff;align=center;strokeColor=#0E7DAD;metaEdit=1;points=[[0.5,0,0],[1,0.25,0],[1,0.5,0],[1,0.75,0],[0.5,1,0],[0,0.75,0],[0,0.5,0],[0,0.25,0]];resizable=0;" parent="iXwUmZw2ifD2mZiQY8Lr-14" vertex="1">
            <mxGeometry y="220" width="240" height="120" as="geometry" />
          </mxCell>
        </object>
        <mxCell id="iXwUmZw2ifD2mZiQY8Lr-17" value="&lt;span style=&quot;color: rgb(0, 0, 0); font-family: Helvetica; font-size: 11px; font-style: normal; font-variant-ligatures: normal; font-variant-caps: normal; font-weight: 400; letter-spacing: normal; orphans: 2; text-align: center; text-indent: 0px; text-transform: none; widows: 2; word-spacing: 0px; -webkit-text-stroke-width: 0px; background-color: rgb(255, 255, 255); text-decoration-thickness: initial; text-decoration-style: initial; text-decoration-color: initial; float: none; display: inline !important;&quot;&gt;reads from and writes to&lt;/span&gt;" style="edgeStyle=orthogonalEdgeStyle;rounded=0;orthogonalLoop=1;jettySize=auto;html=1;exitX=0.5;exitY=1;exitDx=0;exitDy=0;exitPerimeter=0;" parent="iXwUmZw2ifD2mZiQY8Lr-14" source="iXwUmZw2ifD2mZiQY8Lr-15" target="iXwUmZw2ifD2mZiQY8Lr-16" edge="1">
          <mxGeometry relative="1" as="geometry" />
        </mxCell>
        <mxCell id="iXwUmZw2ifD2mZiQY8Lr-25" value="" style="group" parent="1" vertex="1" connectable="0">
          <mxGeometry x="1155" y="1320" width="240" height="340" as="geometry" />
        </mxCell>
        <object placeholders="1" c4Type="Order" c4Container="Container" c4Technology="NestJS + TypeScript" c4Description="Handles operations for orders." label="&lt;font style=&quot;font-size: 16px&quot;&gt;&lt;b&gt;%c4Type%&lt;/b&gt;&lt;/font&gt;&lt;div&gt;[%c4Container%:&amp;nbsp;%c4Technology%]&lt;/div&gt;&lt;br&gt;&lt;div&gt;&lt;font style=&quot;font-size: 11px&quot;&gt;&lt;font color=&quot;#E6E6E6&quot;&gt;%c4Description%&lt;/font&gt;&lt;/div&gt;" id="iXwUmZw2ifD2mZiQY8Lr-26">
          <mxCell style="shape=hexagon;size=50;perimeter=hexagonPerimeter2;whiteSpace=wrap;html=1;fixedSize=1;rounded=1;labelBackgroundColor=none;fillColor=#23A2D9;fontSize=12;fontColor=#ffffff;align=center;strokeColor=#0E7DAD;metaEdit=1;points=[[0.5,0,0],[1,0.25,0],[1,0.5,0],[1,0.75,0],[0.5,1,0],[0,0.75,0],[0,0.5,0],[0,0.25,0]];resizable=0;container=0;" parent="iXwUmZw2ifD2mZiQY8Lr-25" vertex="1">
            <mxGeometry x="20" width="200" height="170" as="geometry" />
          </mxCell>
        </object>
        <object placeholders="1" c4Type="OrderDB" c4Container="Container" c4Technology="MySQL" c4Description="Stores data about orders." label="&lt;font style=&quot;font-size: 16px&quot;&gt;&lt;b&gt;%c4Type%&lt;/b&gt;&lt;/font&gt;&lt;div&gt;[%c4Container%:&amp;nbsp;%c4Technology%]&lt;/div&gt;&lt;br&gt;&lt;div&gt;&lt;font style=&quot;font-size: 11px&quot;&gt;&lt;font color=&quot;#E6E6E6&quot;&gt;%c4Description%&lt;/font&gt;&lt;/div&gt;" id="iXwUmZw2ifD2mZiQY8Lr-27">
          <mxCell style="shape=cylinder3;size=15;whiteSpace=wrap;html=1;boundedLbl=1;rounded=0;labelBackgroundColor=none;fillColor=#23A2D9;fontSize=12;fontColor=#ffffff;align=center;strokeColor=#0E7DAD;metaEdit=1;points=[[0.5,0,0],[1,0.25,0],[1,0.5,0],[1,0.75,0],[0.5,1,0],[0,0.75,0],[0,0.5,0],[0,0.25,0]];resizable=0;container=0;" parent="iXwUmZw2ifD2mZiQY8Lr-25" vertex="1">
            <mxGeometry y="220" width="240" height="120" as="geometry" />
          </mxCell>
        </object>
        <mxCell id="iXwUmZw2ifD2mZiQY8Lr-28" value="reads from and writes to" style="edgeStyle=orthogonalEdgeStyle;rounded=0;orthogonalLoop=1;jettySize=auto;html=1;exitX=0.5;exitY=1;exitDx=0;exitDy=0;exitPerimeter=0;entryX=0.5;entryY=0;entryDx=0;entryDy=0;entryPerimeter=0;" parent="iXwUmZw2ifD2mZiQY8Lr-25" source="iXwUmZw2ifD2mZiQY8Lr-26" target="iXwUmZw2ifD2mZiQY8Lr-27" edge="1">
          <mxGeometry relative="1" as="geometry" />
        </mxCell>
        <mxCell id="iXwUmZw2ifD2mZiQY8Lr-29" value="" style="group" parent="1" vertex="1" connectable="0">
          <mxGeometry x="675" y="1640" width="240" height="340" as="geometry" />
        </mxCell>
        <object placeholders="1" c4Type="Product" c4Container="Container" c4Technology="NestJS + TypeScript" c4Description="Handles operations for products, including price and stock." label="&lt;font style=&quot;font-size: 16px&quot;&gt;&lt;b&gt;%c4Type%&lt;/b&gt;&lt;/font&gt;&lt;div&gt;[%c4Container%:&amp;nbsp;%c4Technology%]&lt;/div&gt;&lt;br&gt;&lt;div&gt;&lt;font style=&quot;font-size: 11px&quot;&gt;&lt;font color=&quot;#E6E6E6&quot;&gt;%c4Description%&lt;/font&gt;&lt;/div&gt;" id="iXwUmZw2ifD2mZiQY8Lr-30">
          <mxCell style="shape=hexagon;size=50;perimeter=hexagonPerimeter2;whiteSpace=wrap;html=1;fixedSize=1;rounded=1;labelBackgroundColor=none;fillColor=#23A2D9;fontSize=12;fontColor=#ffffff;align=center;strokeColor=#0E7DAD;metaEdit=1;points=[[0.5,0,0],[1,0.25,0],[1,0.5,0],[1,0.75,0],[0.5,1,0],[0,0.75,0],[0,0.5,0],[0,0.25,0]];resizable=0;container=0;" parent="iXwUmZw2ifD2mZiQY8Lr-29" vertex="1">
            <mxGeometry x="20" width="200" height="170" as="geometry" />
          </mxCell>
        </object>
        <object placeholders="1" c4Type="ProductDB" c4Container="Container" c4Technology="MySQL" c4Description="Stores data about products." label="&lt;font style=&quot;font-size: 16px&quot;&gt;&lt;b&gt;%c4Type%&lt;/b&gt;&lt;/font&gt;&lt;div&gt;[%c4Container%:&amp;nbsp;%c4Technology%]&lt;/div&gt;&lt;br&gt;&lt;div&gt;&lt;font style=&quot;font-size: 11px&quot;&gt;&lt;font color=&quot;#E6E6E6&quot;&gt;%c4Description%&lt;/font&gt;&lt;/div&gt;" id="iXwUmZw2ifD2mZiQY8Lr-31">
          <mxCell style="shape=cylinder3;size=15;whiteSpace=wrap;html=1;boundedLbl=1;rounded=0;labelBackgroundColor=none;fillColor=#23A2D9;fontSize=12;fontColor=#ffffff;align=center;strokeColor=#0E7DAD;metaEdit=1;points=[[0.5,0,0],[1,0.25,0],[1,0.5,0],[1,0.75,0],[0.5,1,0],[0,0.75,0],[0,0.5,0],[0,0.25,0]];resizable=0;container=0;" parent="iXwUmZw2ifD2mZiQY8Lr-29" vertex="1">
            <mxGeometry y="220" width="240" height="120" as="geometry" />
          </mxCell>
        </object>
        <mxCell id="iXwUmZw2ifD2mZiQY8Lr-32" value="&lt;span style=&quot;color: rgb(0, 0, 0); font-family: Helvetica; font-size: 11px; font-style: normal; font-variant-ligatures: normal; font-variant-caps: normal; font-weight: 400; letter-spacing: normal; orphans: 2; text-align: center; text-indent: 0px; text-transform: none; widows: 2; word-spacing: 0px; -webkit-text-stroke-width: 0px; background-color: rgb(255, 255, 255); text-decoration-thickness: initial; text-decoration-style: initial; text-decoration-color: initial; float: none; display: inline !important;&quot;&gt;reads from and writes to&lt;/span&gt;" style="edgeStyle=orthogonalEdgeStyle;rounded=0;orthogonalLoop=1;jettySize=auto;html=1;exitX=0.5;exitY=1;exitDx=0;exitDy=0;exitPerimeter=0;entryX=0.5;entryY=0;entryDx=0;entryDy=0;entryPerimeter=0;" parent="iXwUmZw2ifD2mZiQY8Lr-29" source="iXwUmZw2ifD2mZiQY8Lr-30" target="iXwUmZw2ifD2mZiQY8Lr-31" edge="1">
          <mxGeometry relative="1" as="geometry" />
        </mxCell>
        <mxCell id="iXwUmZw2ifD2mZiQY8Lr-33" value="" style="group" parent="1" vertex="1" connectable="0">
          <mxGeometry x="1395" y="1540" width="240" height="340" as="geometry" />
        </mxCell>
        <object placeholders="1" c4Type="Payment" c4Container="Container" c4Technology="NestJS + TypeScript" c4Description="Handles operations for order payment." label="&lt;font style=&quot;font-size: 16px&quot;&gt;&lt;b&gt;%c4Type%&lt;/b&gt;&lt;/font&gt;&lt;div&gt;[%c4Container%:&amp;nbsp;%c4Technology%]&lt;/div&gt;&lt;br&gt;&lt;div&gt;&lt;font style=&quot;font-size: 11px&quot;&gt;&lt;font color=&quot;#E6E6E6&quot;&gt;%c4Description%&lt;/font&gt;&lt;/div&gt;" id="iXwUmZw2ifD2mZiQY8Lr-34">
          <mxCell style="shape=hexagon;size=50;perimeter=hexagonPerimeter2;whiteSpace=wrap;html=1;fixedSize=1;rounded=1;labelBackgroundColor=none;fillColor=#23A2D9;fontSize=12;fontColor=#ffffff;align=center;strokeColor=#0E7DAD;metaEdit=1;points=[[0.5,0,0],[1,0.25,0],[1,0.5,0],[1,0.75,0],[0.5,1,0],[0,0.75,0],[0,0.5,0],[0,0.25,0]];resizable=0;container=0;" parent="iXwUmZw2ifD2mZiQY8Lr-33" vertex="1">
            <mxGeometry x="20" width="200" height="170" as="geometry" />
          </mxCell>
        </object>
        <object placeholders="1" c4Type="PaymentDB" c4Container="Container" c4Technology="MySQL" c4Description="Stores data about order payments." label="&lt;font style=&quot;font-size: 16px&quot;&gt;&lt;b&gt;%c4Type%&lt;/b&gt;&lt;/font&gt;&lt;div&gt;[%c4Container%:&amp;nbsp;%c4Technology%]&lt;/div&gt;&lt;br&gt;&lt;div&gt;&lt;font style=&quot;font-size: 11px&quot;&gt;&lt;font color=&quot;#E6E6E6&quot;&gt;%c4Description%&lt;/font&gt;&lt;/div&gt;" id="iXwUmZw2ifD2mZiQY8Lr-35">
          <mxCell style="shape=cylinder3;size=15;whiteSpace=wrap;html=1;boundedLbl=1;rounded=0;labelBackgroundColor=none;fillColor=#23A2D9;fontSize=12;fontColor=#ffffff;align=center;strokeColor=#0E7DAD;metaEdit=1;points=[[0.5,0,0],[1,0.25,0],[1,0.5,0],[1,0.75,0],[0.5,1,0],[0,0.75,0],[0,0.5,0],[0,0.25,0]];resizable=0;container=0;" parent="iXwUmZw2ifD2mZiQY8Lr-33" vertex="1">
            <mxGeometry y="220" width="240" height="120" as="geometry" />
          </mxCell>
        </object>
        <mxCell id="iXwUmZw2ifD2mZiQY8Lr-36" value="reads from and writes to" style="edgeStyle=orthogonalEdgeStyle;rounded=0;orthogonalLoop=1;jettySize=auto;html=1;exitX=0.5;exitY=1;exitDx=0;exitDy=0;exitPerimeter=0;entryX=0.5;entryY=0;entryDx=0;entryDy=0;entryPerimeter=0;" parent="iXwUmZw2ifD2mZiQY8Lr-33" source="iXwUmZw2ifD2mZiQY8Lr-34" target="iXwUmZw2ifD2mZiQY8Lr-35" edge="1">
          <mxGeometry relative="1" as="geometry" />
        </mxCell>
        <mxCell id="iXwUmZw2ifD2mZiQY8Lr-37" value="" style="group" parent="1" vertex="1" connectable="0">
          <mxGeometry x="1875" y="1540" width="240" height="340" as="geometry" />
        </mxCell>
        <object placeholders="1" c4Type="Workforce" c4Container="Container" c4Technology="NestJS + TypeScript" c4Description="Handles operations for schedule and courier/chef availability." label="&lt;font style=&quot;font-size: 16px&quot;&gt;&lt;b&gt;%c4Type%&lt;/b&gt;&lt;/font&gt;&lt;div&gt;[%c4Container%:&amp;nbsp;%c4Technology%]&lt;/div&gt;&lt;br&gt;&lt;div&gt;&lt;font style=&quot;font-size: 11px&quot;&gt;&lt;font color=&quot;#E6E6E6&quot;&gt;%c4Description%&lt;/font&gt;&lt;/div&gt;" id="iXwUmZw2ifD2mZiQY8Lr-38">
          <mxCell style="shape=hexagon;size=50;perimeter=hexagonPerimeter2;whiteSpace=wrap;html=1;fixedSize=1;rounded=1;labelBackgroundColor=none;fillColor=#23A2D9;fontSize=12;fontColor=#ffffff;align=center;strokeColor=#0E7DAD;metaEdit=1;points=[[0.5,0,0],[1,0.25,0],[1,0.5,0],[1,0.75,0],[0.5,1,0],[0,0.75,0],[0,0.5,0],[0,0.25,0]];resizable=0;container=0;" parent="iXwUmZw2ifD2mZiQY8Lr-37" vertex="1">
            <mxGeometry x="20" width="200" height="170" as="geometry" />
          </mxCell>
        </object>
        <object placeholders="1" c4Type="WorkforceDB" c4Container="Container" c4Technology="MySQL" c4Description="Stores data about schedue/availability." label="&lt;font style=&quot;font-size: 16px&quot;&gt;&lt;b&gt;%c4Type%&lt;/b&gt;&lt;/font&gt;&lt;div&gt;[%c4Container%:&amp;nbsp;%c4Technology%]&lt;/div&gt;&lt;br&gt;&lt;div&gt;&lt;font style=&quot;font-size: 11px&quot;&gt;&lt;font color=&quot;#E6E6E6&quot;&gt;%c4Description%&lt;/font&gt;&lt;/div&gt;" id="iXwUmZw2ifD2mZiQY8Lr-39">
          <mxCell style="shape=cylinder3;size=15;whiteSpace=wrap;html=1;boundedLbl=1;rounded=0;labelBackgroundColor=none;fillColor=#23A2D9;fontSize=12;fontColor=#ffffff;align=center;strokeColor=#0E7DAD;metaEdit=1;points=[[0.5,0,0],[1,0.25,0],[1,0.5,0],[1,0.75,0],[0.5,1,0],[0,0.75,0],[0,0.5,0],[0,0.25,0]];resizable=0;container=0;" parent="iXwUmZw2ifD2mZiQY8Lr-37" vertex="1">
            <mxGeometry y="220" width="240" height="120" as="geometry" />
          </mxCell>
        </object>
        <mxCell id="iXwUmZw2ifD2mZiQY8Lr-40" value="&lt;span style=&quot;color: rgb(0, 0, 0); font-family: Helvetica; font-size: 11px; font-style: normal; font-variant-ligatures: normal; font-variant-caps: normal; font-weight: 400; letter-spacing: normal; orphans: 2; text-align: center; text-indent: 0px; text-transform: none; widows: 2; word-spacing: 0px; -webkit-text-stroke-width: 0px; background-color: rgb(255, 255, 255); text-decoration-thickness: initial; text-decoration-style: initial; text-decoration-color: initial; float: none; display: inline !important;&quot;&gt;reads from and writes to&lt;/span&gt;" style="edgeStyle=orthogonalEdgeStyle;rounded=0;orthogonalLoop=1;jettySize=auto;html=1;exitX=0.5;exitY=1;exitDx=0;exitDy=0;exitPerimeter=0;entryX=0.5;entryY=0;entryDx=0;entryDy=0;entryPerimeter=0;" parent="iXwUmZw2ifD2mZiQY8Lr-37" source="iXwUmZw2ifD2mZiQY8Lr-38" target="iXwUmZw2ifD2mZiQY8Lr-39" edge="1">
          <mxGeometry relative="1" as="geometry" />
        </mxCell>
        <mxCell id="3N_IH-nqo6-VJ2Ea3Hy9-6" value="" style="group" parent="1" vertex="1" connectable="0">
          <mxGeometry x="1635" y="1640" width="240" height="340" as="geometry" />
        </mxCell>
        <object placeholders="1" c4Type="Notification" c4Container="Container" c4Technology="NestJS + TypeScript" c4Description="Sends notifications to users" label="&lt;font style=&quot;font-size: 16px&quot;&gt;&lt;b&gt;%c4Type%&lt;/b&gt;&lt;/font&gt;&lt;div&gt;[%c4Container%:&amp;nbsp;%c4Technology%]&lt;/div&gt;&lt;br&gt;&lt;div&gt;&lt;font style=&quot;font-size: 11px&quot;&gt;&lt;font color=&quot;#E6E6E6&quot;&gt;%c4Description%&lt;/font&gt;&lt;/div&gt;" id="3N_IH-nqo6-VJ2Ea3Hy9-7">
          <mxCell style="shape=hexagon;size=50;perimeter=hexagonPerimeter2;whiteSpace=wrap;html=1;fixedSize=1;rounded=1;labelBackgroundColor=none;fillColor=#23A2D9;fontSize=12;fontColor=#ffffff;align=center;strokeColor=#0E7DAD;metaEdit=1;points=[[0.5,0,0],[1,0.25,0],[1,0.5,0],[1,0.75,0],[0.5,1,0],[0,0.75,0],[0,0.5,0],[0,0.25,0]];resizable=0;container=0;" parent="3N_IH-nqo6-VJ2Ea3Hy9-6" vertex="1">
            <mxGeometry x="20" width="200" height="170" as="geometry" />
          </mxCell>
        </object>
        <object placeholders="1" c4Type="NotificationDB" c4Container="Container" c4Technology="MySQL" c4Description="Stores notifications data (notification type, notification status, etc.)." label="&lt;font style=&quot;font-size: 16px&quot;&gt;&lt;b&gt;%c4Type%&lt;/b&gt;&lt;/font&gt;&lt;div&gt;[%c4Container%:&amp;nbsp;%c4Technology%]&lt;/div&gt;&lt;br&gt;&lt;div&gt;&lt;font style=&quot;font-size: 11px&quot;&gt;&lt;font color=&quot;#E6E6E6&quot;&gt;%c4Description%&lt;/font&gt;&lt;/div&gt;" id="3N_IH-nqo6-VJ2Ea3Hy9-8">
          <mxCell style="shape=cylinder3;size=15;whiteSpace=wrap;html=1;boundedLbl=1;rounded=0;labelBackgroundColor=none;fillColor=#23A2D9;fontSize=12;fontColor=#ffffff;align=center;strokeColor=#0E7DAD;metaEdit=1;points=[[0.5,0,0],[1,0.25,0],[1,0.5,0],[1,0.75,0],[0.5,1,0],[0,0.75,0],[0,0.5,0],[0,0.25,0]];resizable=0;container=0;" parent="3N_IH-nqo6-VJ2Ea3Hy9-6" vertex="1">
            <mxGeometry y="220" width="240" height="120" as="geometry" />
          </mxCell>
        </object>
        <mxCell id="3N_IH-nqo6-VJ2Ea3Hy9-9" value="reads from and writes to" style="edgeStyle=orthogonalEdgeStyle;rounded=0;orthogonalLoop=1;jettySize=auto;html=1;exitX=0.5;exitY=1;exitDx=0;exitDy=0;exitPerimeter=0;entryX=0.5;entryY=0;entryDx=0;entryDy=0;entryPerimeter=0;" parent="3N_IH-nqo6-VJ2Ea3Hy9-6" source="3N_IH-nqo6-VJ2Ea3Hy9-7" target="3N_IH-nqo6-VJ2Ea3Hy9-8" edge="1">
          <mxGeometry relative="1" as="geometry" />
        </mxCell>
        <object placeholders="1" c4Name="Payment Processing Platform" c4Type="Sofrware System" c4Description="Point of sale terminal for payment with credit/debit card." label="&lt;font style=&quot;font-size: 16px&quot;&gt;&lt;b&gt;%c4Name%&lt;/b&gt;&lt;/font&gt;&lt;div&gt;[%c4Type%]&lt;/div&gt;&lt;br&gt;&lt;div&gt;&lt;font style=&quot;font-size: 11px&quot;&gt;&lt;font color=&quot;#cccccc&quot;&gt;%c4Description%&lt;/font&gt;&lt;/div&gt;" id="3N_IH-nqo6-VJ2Ea3Hy9-33">
          <mxCell style="rounded=1;whiteSpace=wrap;html=1;labelBackgroundColor=none;fillColor=#8C8496;fontColor=#ffffff;align=center;arcSize=10;strokeColor=#736782;metaEdit=1;resizable=0;points=[[0.25,0,0],[0.5,0,0],[0.75,0,0],[1,0.25,0],[1,0.5,0],[1,0.75,0],[0.75,1,0],[0.5,1,0],[0.25,1,0],[0,0.75,0],[0,0.5,0],[0,0.25,0]];" parent="1" vertex="1">
            <mxGeometry x="1155" y="1880" width="240" height="120" as="geometry" />
          </mxCell>
        </object>
        <mxCell id="DWDfws-ZS5j03M9HYeqR-5" value="" style="endArrow=classic;startArrow=classic;html=1;rounded=0;dashed=1;exitX=0.909;exitY=0.021;exitDx=0;exitDy=0;exitPerimeter=0;entryX=0.25;entryY=1;entryDx=0;entryDy=0;entryPerimeter=0;" parent="1" source="iXwUmZw2ifD2mZiQY8Lr-13" target="1uoCBxbmReuqHe8IM6uu-2" edge="1">
          <mxGeometry width="50" height="50" relative="1" as="geometry">
            <mxPoint x="1354.9999999999995" y="1040" as="sourcePoint" />
            <mxPoint x="1489.9999999999995" y="820" as="targetPoint" />
          </mxGeometry>
        </mxCell>
        <mxCell id="DWDfws-ZS5j03M9HYeqR-6" value="messaging&lt;br&gt;[graphql/websocket]" style="edgeLabel;html=1;align=center;verticalAlign=middle;resizable=0;points=[];" parent="DWDfws-ZS5j03M9HYeqR-5" vertex="1" connectable="0">
          <mxGeometry x="-0.1597" relative="1" as="geometry">
            <mxPoint x="38" y="-68" as="offset" />
          </mxGeometry>
        </mxCell>
        <mxCell id="zurkNIATrX4gOcU3tfIl-10" style="edgeStyle=orthogonalEdgeStyle;rounded=0;orthogonalLoop=1;jettySize=auto;html=1;exitX=0.5;exitY=1;exitDx=0;exitDy=0;exitPerimeter=0;entryX=0.5;entryY=0;entryDx=0;entryDy=0;entryPerimeter=0;" parent="1" source="zurkNIATrX4gOcU3tfIl-2" target="S9X2690wDx_Z-8uSn3eG-30" edge="1">
          <mxGeometry relative="1" as="geometry" />
        </mxCell>
        <mxCell id="1uoCBxbmReuqHe8IM6uu-3" style="edgeStyle=orthogonalEdgeStyle;rounded=0;orthogonalLoop=1;jettySize=auto;html=1;exitX=0.5;exitY=1;exitDx=0;exitDy=0;exitPerimeter=0;entryX=0.5;entryY=0;entryDx=0;entryDy=0;entryPerimeter=0;" parent="1" source="zurkNIATrX4gOcU3tfIl-2" target="1uoCBxbmReuqHe8IM6uu-1" edge="1">
          <mxGeometry relative="1" as="geometry" />
        </mxCell>
        <mxCell id="1uoCBxbmReuqHe8IM6uu-7" style="edgeStyle=orthogonalEdgeStyle;rounded=0;orthogonalLoop=1;jettySize=auto;html=1;exitX=0.5;exitY=1;exitDx=0;exitDy=0;exitPerimeter=0;entryX=0.5;entryY=0;entryDx=0;entryDy=0;entryPerimeter=0;" parent="1" source="zurkNIATrX4gOcU3tfIl-2" target="1uoCBxbmReuqHe8IM6uu-2" edge="1">
          <mxGeometry relative="1" as="geometry" />
        </mxCell>
        <object placeholders="1" c4Name="Customer" c4Type="Person" c4Description="Responsible for placing orders/meal subscriptions." label="&lt;font style=&quot;font-size: 16px&quot;&gt;&lt;b&gt;%c4Name%&lt;/b&gt;&lt;/font&gt;&lt;div&gt;[%c4Type%]&lt;/div&gt;&lt;br&gt;&lt;div&gt;&lt;font style=&quot;font-size: 11px&quot;&gt;&lt;font color=&quot;#cccccc&quot;&gt;%c4Description%&lt;/font&gt;&lt;/div&gt;" id="zurkNIATrX4gOcU3tfIl-2">
          <mxCell style="html=1;fontSize=11;dashed=0;whiteSpace=wrap;fillColor=#083F75;strokeColor=#06315C;fontColor=#ffffff;shape=mxgraph.c4.person2;align=center;metaEdit=1;points=[[0.5,0,0],[1,0.5,0],[1,0.75,0],[0.75,1,0],[0.5,1,0],[0.25,1,0],[0,0.75,0],[0,0.5,0]];resizable=0;rounded=1;" parent="1" vertex="1">
            <mxGeometry x="860" y="380" width="200" height="180" as="geometry" />
          </mxCell>
        </object>
        <mxCell id="zurkNIATrX4gOcU3tfIl-8" style="edgeStyle=orthogonalEdgeStyle;rounded=0;orthogonalLoop=1;jettySize=auto;html=1;exitX=0.5;exitY=1;exitDx=0;exitDy=0;exitPerimeter=0;entryX=0.5;entryY=0;entryDx=0;entryDy=0;entryPerimeter=0;" parent="1" source="zurkNIATrX4gOcU3tfIl-3" target="S9X2690wDx_Z-8uSn3eG-30" edge="1">
          <mxGeometry relative="1" as="geometry" />
        </mxCell>
        <mxCell id="1uoCBxbmReuqHe8IM6uu-4" style="edgeStyle=orthogonalEdgeStyle;rounded=0;orthogonalLoop=1;jettySize=auto;html=1;exitX=0.5;exitY=1;exitDx=0;exitDy=0;exitPerimeter=0;entryX=0.5;entryY=0;entryDx=0;entryDy=0;entryPerimeter=0;" parent="1" source="zurkNIATrX4gOcU3tfIl-3" target="1uoCBxbmReuqHe8IM6uu-1" edge="1">
          <mxGeometry relative="1" as="geometry" />
        </mxCell>
        <mxCell id="1uoCBxbmReuqHe8IM6uu-8" style="edgeStyle=orthogonalEdgeStyle;rounded=0;orthogonalLoop=1;jettySize=auto;html=1;exitX=0.5;exitY=1;exitDx=0;exitDy=0;exitPerimeter=0;entryX=0.5;entryY=0;entryDx=0;entryDy=0;entryPerimeter=0;" parent="1" source="zurkNIATrX4gOcU3tfIl-3" target="1uoCBxbmReuqHe8IM6uu-2" edge="1">
          <mxGeometry relative="1" as="geometry" />
        </mxCell>
        <object placeholders="1" c4Name="Courier" c4Type="Person" c4Description="Responsible for delivering customer orders." label="&lt;font style=&quot;font-size: 16px&quot;&gt;&lt;b&gt;%c4Name%&lt;/b&gt;&lt;/font&gt;&lt;div&gt;[%c4Type%]&lt;/div&gt;&lt;br&gt;&lt;div&gt;&lt;font style=&quot;font-size: 11px&quot;&gt;&lt;font color=&quot;#cccccc&quot;&gt;%c4Description%&lt;/font&gt;&lt;/div&gt;" id="zurkNIATrX4gOcU3tfIl-3">
          <mxCell style="html=1;fontSize=11;dashed=0;whiteSpace=wrap;fillColor=#083F75;strokeColor=#06315C;fontColor=#ffffff;shape=mxgraph.c4.person2;align=center;metaEdit=1;points=[[0.5,0,0],[1,0.5,0],[1,0.75,0],[0.75,1,0],[0.5,1,0],[0.25,1,0],[0,0.75,0],[0,0.5,0]];resizable=0;rounded=1;" parent="1" vertex="1">
            <mxGeometry x="1070" y="380" width="200" height="180" as="geometry" />
          </mxCell>
        </object>
        <mxCell id="zurkNIATrX4gOcU3tfIl-9" style="edgeStyle=orthogonalEdgeStyle;rounded=0;orthogonalLoop=1;jettySize=auto;html=1;exitX=0.5;exitY=1;exitDx=0;exitDy=0;exitPerimeter=0;entryX=0.5;entryY=0;entryDx=0;entryDy=0;entryPerimeter=0;" parent="1" source="zurkNIATrX4gOcU3tfIl-4" target="S9X2690wDx_Z-8uSn3eG-30" edge="1">
          <mxGeometry relative="1" as="geometry" />
        </mxCell>
        <mxCell id="1uoCBxbmReuqHe8IM6uu-5" style="edgeStyle=orthogonalEdgeStyle;rounded=0;orthogonalLoop=1;jettySize=auto;html=1;exitX=0.5;exitY=1;exitDx=0;exitDy=0;exitPerimeter=0;entryX=0.5;entryY=0;entryDx=0;entryDy=0;entryPerimeter=0;" parent="1" source="zurkNIATrX4gOcU3tfIl-4" target="1uoCBxbmReuqHe8IM6uu-1" edge="1">
          <mxGeometry relative="1" as="geometry" />
        </mxCell>
        <mxCell id="1uoCBxbmReuqHe8IM6uu-9" style="edgeStyle=orthogonalEdgeStyle;rounded=0;orthogonalLoop=1;jettySize=auto;html=1;exitX=0.5;exitY=1;exitDx=0;exitDy=0;exitPerimeter=0;entryX=0.5;entryY=0;entryDx=0;entryDy=0;entryPerimeter=0;" parent="1" source="zurkNIATrX4gOcU3tfIl-4" target="1uoCBxbmReuqHe8IM6uu-2" edge="1">
          <mxGeometry relative="1" as="geometry">
            <mxPoint x="1529.9999999999995" y="719.9999999999998" as="targetPoint" />
          </mxGeometry>
        </mxCell>
        <object placeholders="1" c4Name="Chef" c4Type="Person" c4Description="Responsible for managing meals/meal plans." label="&lt;font style=&quot;font-size: 16px&quot;&gt;&lt;b&gt;%c4Name%&lt;/b&gt;&lt;/font&gt;&lt;div&gt;[%c4Type%]&lt;/div&gt;&lt;br&gt;&lt;div&gt;&lt;font style=&quot;font-size: 11px&quot;&gt;&lt;font color=&quot;#cccccc&quot;&gt;%c4Description%&lt;/font&gt;&lt;/div&gt;" id="zurkNIATrX4gOcU3tfIl-4">
          <mxCell style="html=1;fontSize=11;dashed=0;whiteSpace=wrap;fillColor=#083F75;strokeColor=#06315C;fontColor=#ffffff;shape=mxgraph.c4.person2;align=center;metaEdit=1;points=[[0.5,0,0],[1,0.5,0],[1,0.75,0],[0.75,1,0],[0.5,1,0],[0.25,1,0],[0,0.75,0],[0,0.5,0]];resizable=0;rounded=1;" parent="1" vertex="1">
            <mxGeometry x="1280" y="380" width="200" height="180" as="geometry" />
          </mxCell>
        </object>
        <mxCell id="zurkNIATrX4gOcU3tfIl-11" style="edgeStyle=orthogonalEdgeStyle;rounded=0;orthogonalLoop=1;jettySize=auto;html=1;exitX=0.5;exitY=1;exitDx=0;exitDy=0;exitPerimeter=0;entryX=0.5;entryY=0;entryDx=0;entryDy=0;entryPerimeter=0;" parent="1" source="zurkNIATrX4gOcU3tfIl-5" target="S9X2690wDx_Z-8uSn3eG-30" edge="1">
          <mxGeometry relative="1" as="geometry" />
        </mxCell>
        <mxCell id="1uoCBxbmReuqHe8IM6uu-6" style="edgeStyle=orthogonalEdgeStyle;rounded=0;orthogonalLoop=1;jettySize=auto;html=1;exitX=0.5;exitY=1;exitDx=0;exitDy=0;exitPerimeter=0;entryX=0.5;entryY=0;entryDx=0;entryDy=0;entryPerimeter=0;" parent="1" source="zurkNIATrX4gOcU3tfIl-5" target="1uoCBxbmReuqHe8IM6uu-1" edge="1">
          <mxGeometry relative="1" as="geometry" />
        </mxCell>
        <mxCell id="1uoCBxbmReuqHe8IM6uu-10" style="edgeStyle=orthogonalEdgeStyle;rounded=0;orthogonalLoop=1;jettySize=auto;html=1;exitX=0.5;exitY=1;exitDx=0;exitDy=0;exitPerimeter=0;entryX=0.5;entryY=0;entryDx=0;entryDy=0;entryPerimeter=0;" parent="1" source="zurkNIATrX4gOcU3tfIl-5" target="1uoCBxbmReuqHe8IM6uu-2" edge="1">
          <mxGeometry relative="1" as="geometry" />
        </mxCell>
        <object placeholders="1" c4Name="Administrator" c4Type="Person" c4Description="Responsible for analysing statistics and managing chef and courier accounts." label="&lt;font style=&quot;font-size: 16px&quot;&gt;&lt;b&gt;%c4Name%&lt;/b&gt;&lt;/font&gt;&lt;div&gt;[%c4Type%]&lt;/div&gt;&lt;br&gt;&lt;div&gt;&lt;font style=&quot;font-size: 11px&quot;&gt;&lt;font color=&quot;#cccccc&quot;&gt;%c4Description%&lt;/font&gt;&lt;/div&gt;" id="zurkNIATrX4gOcU3tfIl-5">
          <mxCell style="html=1;fontSize=11;dashed=0;whiteSpace=wrap;fillColor=#083F75;strokeColor=#06315C;fontColor=#ffffff;shape=mxgraph.c4.person2;align=center;metaEdit=1;points=[[0.5,0,0],[1,0.5,0],[1,0.75,0],[0.75,1,0],[0.5,1,0],[0.25,1,0],[0,0.75,0],[0,0.5,0]];resizable=0;rounded=1;" parent="1" vertex="1">
            <mxGeometry x="1490" y="380" width="200" height="180" as="geometry" />
          </mxCell>
        </object>
        <mxCell id="EPpzyMcfC1lIuWaVR3Jr-5" value="" style="group" parent="1" vertex="1" connectable="0">
          <mxGeometry x="790" y="940" width="240" height="340" as="geometry" />
        </mxCell>
        <object placeholders="1" c4Type="Feed" c4Container="Container" c4Technology="NestJS + TypeScript" c4Description="Handles users&#39; social feed, chef reviews and ratings." label="&lt;font style=&quot;font-size: 16px&quot;&gt;&lt;b&gt;%c4Type%&lt;/b&gt;&lt;/font&gt;&lt;div&gt;[%c4Container%:&amp;nbsp;%c4Technology%]&lt;/div&gt;&lt;br&gt;&lt;div&gt;&lt;font style=&quot;font-size: 11px&quot;&gt;&lt;font color=&quot;#E6E6E6&quot;&gt;%c4Description%&lt;/font&gt;&lt;/div&gt;" id="EPpzyMcfC1lIuWaVR3Jr-6">
          <mxCell style="shape=hexagon;size=50;perimeter=hexagonPerimeter2;whiteSpace=wrap;html=1;fixedSize=1;rounded=1;labelBackgroundColor=none;fillColor=#23A2D9;fontSize=12;fontColor=#ffffff;align=center;strokeColor=#0E7DAD;metaEdit=1;points=[[0.5,0,0],[1,0.25,0],[1,0.5,0],[1,0.75,0],[0.5,1,0],[0,0.75,0],[0,0.5,0],[0,0.25,0]];resizable=0;container=0;" parent="EPpzyMcfC1lIuWaVR3Jr-5" vertex="1">
            <mxGeometry x="20" width="200" height="170" as="geometry" />
          </mxCell>
        </object>
        <object placeholders="1" c4Type="FeedDB" c4Container="Container" c4Technology="MySQL" c4Description="Stores data about posts, ratings and reviews." label="&lt;font style=&quot;font-size: 16px&quot;&gt;&lt;b&gt;%c4Type%&lt;/b&gt;&lt;/font&gt;&lt;div&gt;[%c4Container%:&amp;nbsp;%c4Technology%]&lt;/div&gt;&lt;br&gt;&lt;div&gt;&lt;font style=&quot;font-size: 11px&quot;&gt;&lt;font color=&quot;#E6E6E6&quot;&gt;%c4Description%&lt;/font&gt;&lt;/div&gt;" id="EPpzyMcfC1lIuWaVR3Jr-7">
          <mxCell style="shape=cylinder3;size=15;whiteSpace=wrap;html=1;boundedLbl=1;rounded=0;labelBackgroundColor=none;fillColor=#23A2D9;fontSize=12;fontColor=#ffffff;align=center;strokeColor=#0E7DAD;metaEdit=1;points=[[0.5,0,0],[1,0.25,0],[1,0.5,0],[1,0.75,0],[0.5,1,0],[0,0.75,0],[0,0.5,0],[0,0.25,0]];resizable=0;container=0;" parent="EPpzyMcfC1lIuWaVR3Jr-5" vertex="1">
            <mxGeometry y="220" width="240" height="120" as="geometry" />
          </mxCell>
        </object>
        <mxCell id="EPpzyMcfC1lIuWaVR3Jr-8" value="&lt;span style=&quot;color: rgb(0, 0, 0); font-family: Helvetica; font-size: 11px; font-style: normal; font-variant-ligatures: normal; font-variant-caps: normal; font-weight: 400; letter-spacing: normal; orphans: 2; text-align: center; text-indent: 0px; text-transform: none; widows: 2; word-spacing: 0px; -webkit-text-stroke-width: 0px; background-color: rgb(255, 255, 255); text-decoration-thickness: initial; text-decoration-style: initial; text-decoration-color: initial; float: none; display: inline !important;&quot;&gt;reads from and writes to&lt;/span&gt;" style="edgeStyle=orthogonalEdgeStyle;rounded=0;orthogonalLoop=1;jettySize=auto;html=1;exitX=0.5;exitY=1;exitDx=0;exitDy=0;exitPerimeter=0;entryX=0.5;entryY=0;entryDx=0;entryDy=0;entryPerimeter=0;" parent="EPpzyMcfC1lIuWaVR3Jr-5" source="EPpzyMcfC1lIuWaVR3Jr-6" target="EPpzyMcfC1lIuWaVR3Jr-7" edge="1">
          <mxGeometry relative="1" as="geometry" />
        </mxCell>
        <mxCell id="EPpzyMcfC1lIuWaVR3Jr-9" value="" style="group" parent="1" vertex="1" connectable="0">
          <mxGeometry x="915" y="1540" width="240" height="340" as="geometry" />
        </mxCell>
        <object placeholders="1" c4Type="MealPlan" c4Container="Container" c4Technology="NestJS + TypeScript" c4Description="Handles meal plan management and subscriptions." label="&lt;font style=&quot;font-size: 16px&quot;&gt;&lt;b&gt;%c4Type%&lt;/b&gt;&lt;/font&gt;&lt;div&gt;[%c4Container%:&amp;nbsp;%c4Technology%]&lt;/div&gt;&lt;br&gt;&lt;div&gt;&lt;font style=&quot;font-size: 11px&quot;&gt;&lt;font color=&quot;#E6E6E6&quot;&gt;%c4Description%&lt;/font&gt;&lt;/div&gt;" id="EPpzyMcfC1lIuWaVR3Jr-10">
          <mxCell style="shape=hexagon;size=50;perimeter=hexagonPerimeter2;whiteSpace=wrap;html=1;fixedSize=1;rounded=1;labelBackgroundColor=none;fillColor=#23A2D9;fontSize=12;fontColor=#ffffff;align=center;strokeColor=#0E7DAD;metaEdit=1;points=[[0.5,0,0],[1,0.25,0],[1,0.5,0],[1,0.75,0],[0.5,1,0],[0,0.75,0],[0,0.5,0],[0,0.25,0]];resizable=0;container=0;" parent="EPpzyMcfC1lIuWaVR3Jr-9" vertex="1">
            <mxGeometry x="20" width="200" height="170" as="geometry" />
          </mxCell>
        </object>
        <object placeholders="1" c4Type="MealPlanDB" c4Container="Container" c4Technology="MySQL" c4Description="Stores data about meal plans and subscriptions." label="&lt;font style=&quot;font-size: 16px&quot;&gt;&lt;b&gt;%c4Type%&lt;/b&gt;&lt;/font&gt;&lt;div&gt;[%c4Container%:&amp;nbsp;%c4Technology%]&lt;/div&gt;&lt;br&gt;&lt;div&gt;&lt;font style=&quot;font-size: 11px&quot;&gt;&lt;font color=&quot;#E6E6E6&quot;&gt;%c4Description%&lt;/font&gt;&lt;/div&gt;" id="EPpzyMcfC1lIuWaVR3Jr-11">
          <mxCell style="shape=cylinder3;size=15;whiteSpace=wrap;html=1;boundedLbl=1;rounded=0;labelBackgroundColor=none;fillColor=#23A2D9;fontSize=12;fontColor=#ffffff;align=center;strokeColor=#0E7DAD;metaEdit=1;points=[[0.5,0,0],[1,0.25,0],[1,0.5,0],[1,0.75,0],[0.5,1,0],[0,0.75,0],[0,0.5,0],[0,0.25,0]];resizable=0;container=0;" parent="EPpzyMcfC1lIuWaVR3Jr-9" vertex="1">
            <mxGeometry y="220" width="240" height="120" as="geometry" />
          </mxCell>
        </object>
        <mxCell id="EPpzyMcfC1lIuWaVR3Jr-12" value="&lt;span style=&quot;color: rgb(0, 0, 0); font-family: Helvetica; font-size: 11px; font-style: normal; font-variant-ligatures: normal; font-variant-caps: normal; font-weight: 400; letter-spacing: normal; orphans: 2; text-align: center; text-indent: 0px; text-transform: none; widows: 2; word-spacing: 0px; -webkit-text-stroke-width: 0px; background-color: rgb(255, 255, 255); text-decoration-thickness: initial; text-decoration-style: initial; text-decoration-color: initial; float: none; display: inline !important;&quot;&gt;reads from and writes to&lt;/span&gt;" style="edgeStyle=orthogonalEdgeStyle;rounded=0;orthogonalLoop=1;jettySize=auto;html=1;exitX=0.5;exitY=1;exitDx=0;exitDy=0;exitPerimeter=0;entryX=0.5;entryY=0;entryDx=0;entryDy=0;entryPerimeter=0;" parent="EPpzyMcfC1lIuWaVR3Jr-9" source="EPpzyMcfC1lIuWaVR3Jr-10" target="EPpzyMcfC1lIuWaVR3Jr-11" edge="1">
          <mxGeometry relative="1" as="geometry" />
        </mxCell>
        <mxCell id="EPpzyMcfC1lIuWaVR3Jr-39" value="" style="group" parent="1" vertex="1" connectable="0">
          <mxGeometry x="1520" y="940" width="240" height="340" as="geometry" />
        </mxCell>
        <object placeholders="1" c4Type="Chat" c4Container="Container" c4Technology="NestJS + TypeScript" c4Description="Handles chatting operations." label="&lt;font style=&quot;font-size: 16px&quot;&gt;&lt;b&gt;%c4Type%&lt;/b&gt;&lt;/font&gt;&lt;div&gt;[%c4Container%:&amp;nbsp;%c4Technology%]&lt;/div&gt;&lt;br&gt;&lt;div&gt;&lt;font style=&quot;font-size: 11px&quot;&gt;&lt;font color=&quot;#E6E6E6&quot;&gt;%c4Description%&lt;/font&gt;&lt;/div&gt;" id="EPpzyMcfC1lIuWaVR3Jr-40">
          <mxCell style="shape=hexagon;size=50;perimeter=hexagonPerimeter2;whiteSpace=wrap;html=1;fixedSize=1;rounded=1;labelBackgroundColor=none;fillColor=#23A2D9;fontSize=12;fontColor=#ffffff;align=center;strokeColor=#0E7DAD;metaEdit=1;points=[[0.5,0,0],[1,0.25,0],[1,0.5,0],[1,0.75,0],[0.5,1,0],[0,0.75,0],[0,0.5,0],[0,0.25,0]];resizable=0;container=0;" parent="EPpzyMcfC1lIuWaVR3Jr-39" vertex="1">
            <mxGeometry x="20" width="200" height="170" as="geometry" />
          </mxCell>
        </object>
        <object placeholders="1" c4Type="ChatDB" c4Container="Container" c4Technology="MySQL" c4Description="Stores chat rooms and messages." label="&lt;font style=&quot;font-size: 16px&quot;&gt;&lt;b&gt;%c4Type%&lt;/b&gt;&lt;/font&gt;&lt;div&gt;[%c4Container%:&amp;nbsp;%c4Technology%]&lt;/div&gt;&lt;br&gt;&lt;div&gt;&lt;font style=&quot;font-size: 11px&quot;&gt;&lt;font color=&quot;#E6E6E6&quot;&gt;%c4Description%&lt;/font&gt;&lt;/div&gt;" id="EPpzyMcfC1lIuWaVR3Jr-41">
          <mxCell style="shape=cylinder3;size=15;whiteSpace=wrap;html=1;boundedLbl=1;rounded=0;labelBackgroundColor=none;fillColor=#23A2D9;fontSize=12;fontColor=#ffffff;align=center;strokeColor=#0E7DAD;metaEdit=1;points=[[0.5,0,0],[1,0.25,0],[1,0.5,0],[1,0.75,0],[0.5,1,0],[0,0.75,0],[0,0.5,0],[0,0.25,0]];resizable=0;container=0;" parent="EPpzyMcfC1lIuWaVR3Jr-39" vertex="1">
            <mxGeometry y="220" width="240" height="120" as="geometry" />
          </mxCell>
        </object>
        <mxCell id="EPpzyMcfC1lIuWaVR3Jr-42" value="&lt;span style=&quot;color: rgb(0, 0, 0); font-family: Helvetica; font-size: 11px; font-style: normal; font-variant-ligatures: normal; font-variant-caps: normal; font-weight: 400; letter-spacing: normal; orphans: 2; text-align: center; text-indent: 0px; text-transform: none; widows: 2; word-spacing: 0px; -webkit-text-stroke-width: 0px; background-color: rgb(255, 255, 255); text-decoration-thickness: initial; text-decoration-style: initial; text-decoration-color: initial; float: none; display: inline !important;&quot;&gt;reads from and writes to&lt;/span&gt;" style="edgeStyle=orthogonalEdgeStyle;rounded=0;orthogonalLoop=1;jettySize=auto;html=1;exitX=0.5;exitY=1;exitDx=0;exitDy=0;exitPerimeter=0;entryX=0.5;entryY=0;entryDx=0;entryDy=0;entryPerimeter=0;" parent="EPpzyMcfC1lIuWaVR3Jr-39" source="EPpzyMcfC1lIuWaVR3Jr-40" target="EPpzyMcfC1lIuWaVR3Jr-41" edge="1">
          <mxGeometry relative="1" as="geometry" />
        </mxCell>
        <mxCell id="EPpzyMcfC1lIuWaVR3Jr-53" value="" style="endArrow=classic;startArrow=classic;html=1;rounded=0;dashed=1;exitX=0.959;exitY=0.621;exitDx=0;exitDy=0;exitPerimeter=0;entryX=0.216;entryY=0.075;entryDx=0;entryDy=0;entryPerimeter=0;" parent="1" source="iXwUmZw2ifD2mZiQY8Lr-26" target="iXwUmZw2ifD2mZiQY8Lr-34" edge="1">
          <mxGeometry width="50" height="50" relative="1" as="geometry">
            <mxPoint x="1865" y="1735" as="sourcePoint" />
            <mxPoint x="1905" y="1635" as="targetPoint" />
          </mxGeometry>
        </mxCell>
        <mxCell id="EPpzyMcfC1lIuWaVR3Jr-54" value="messaging&lt;br&gt;[RabbitMQ]" style="edgeLabel;html=1;align=center;verticalAlign=middle;resizable=0;points=[];" parent="EPpzyMcfC1lIuWaVR3Jr-53" vertex="1" connectable="0">
          <mxGeometry x="-0.1597" relative="1" as="geometry">
            <mxPoint x="15" y="21" as="offset" />
          </mxGeometry>
        </mxCell>
        <mxCell id="EPpzyMcfC1lIuWaVR3Jr-57" value="" style="endArrow=classic;html=1;rounded=0;dashed=1;exitX=1;exitY=0.5;exitDx=0;exitDy=0;exitPerimeter=0;entryX=0.265;entryY=-0.005;entryDx=0;entryDy=0;entryPerimeter=0;" parent="1" source="iXwUmZw2ifD2mZiQY8Lr-26" target="3N_IH-nqo6-VJ2Ea3Hy9-7" edge="1">
          <mxGeometry width="50" height="50" relative="1" as="geometry">
            <mxPoint x="1390" y="1400" as="sourcePoint" />
            <mxPoint x="1465" y="1500" as="targetPoint" />
          </mxGeometry>
        </mxCell>
        <mxCell id="EPpzyMcfC1lIuWaVR3Jr-58" value="messaging&lt;br&gt;[RabbitMQ]" style="edgeLabel;html=1;align=center;verticalAlign=middle;resizable=0;points=[];" parent="EPpzyMcfC1lIuWaVR3Jr-57" vertex="1" connectable="0">
          <mxGeometry x="0.5888" relative="1" as="geometry">
            <mxPoint x="-225" y="-161" as="offset" />
          </mxGeometry>
        </mxCell>
        <mxCell id="EPpzyMcfC1lIuWaVR3Jr-59" value="" style="endArrow=classic;html=1;rounded=0;dashed=1;exitX=0.203;exitY=0.963;exitDx=0;exitDy=0;exitPerimeter=0;entryX=1;entryY=0.5;entryDx=0;entryDy=0;entryPerimeter=0;" parent="1" source="iXwUmZw2ifD2mZiQY8Lr-38" target="3N_IH-nqo6-VJ2Ea3Hy9-7" edge="1">
          <mxGeometry width="50" height="50" relative="1" as="geometry">
            <mxPoint x="1542" y="1300" as="sourcePoint" />
            <mxPoint x="1875" y="1534.15" as="targetPoint" />
          </mxGeometry>
        </mxCell>
        <mxCell id="EPpzyMcfC1lIuWaVR3Jr-60" value="messaging&lt;br&gt;[RabbitMQ]" style="edgeLabel;html=1;align=center;verticalAlign=middle;resizable=0;points=[];" parent="EPpzyMcfC1lIuWaVR3Jr-59" vertex="1" connectable="0">
          <mxGeometry x="0.5888" relative="1" as="geometry">
            <mxPoint x="28" y="-11" as="offset" />
          </mxGeometry>
        </mxCell>
        <mxCell id="EPpzyMcfC1lIuWaVR3Jr-61" value="" style="endArrow=classic;html=1;rounded=0;dashed=1;exitX=0.785;exitY=0.942;exitDx=0;exitDy=0;exitPerimeter=0;entryX=0.025;entryY=0.435;entryDx=0;entryDy=0;entryPerimeter=0;" parent="1" source="iXwUmZw2ifD2mZiQY8Lr-34" target="3N_IH-nqo6-VJ2Ea3Hy9-7" edge="1">
          <mxGeometry width="50" height="50" relative="1" as="geometry">
            <mxPoint x="1905" y="1635" as="sourcePoint" />
            <mxPoint x="1650" y="1720" as="targetPoint" />
          </mxGeometry>
        </mxCell>
        <mxCell id="EPpzyMcfC1lIuWaVR3Jr-62" value="messaging&lt;br&gt;[RabbitMQ]" style="edgeLabel;html=1;align=center;verticalAlign=middle;resizable=0;points=[];" parent="EPpzyMcfC1lIuWaVR3Jr-61" vertex="1" connectable="0">
          <mxGeometry x="0.5888" relative="1" as="geometry">
            <mxPoint x="-32" y="-11" as="offset" />
          </mxGeometry>
        </mxCell>
        <mxCell id="EPpzyMcfC1lIuWaVR3Jr-63" value="" style="endArrow=classic;html=1;rounded=0;dashed=1;entryX=0.996;entryY=1.008;entryDx=0;entryDy=0;entryPerimeter=0;" parent="1" target="iXwUmZw2ifD2mZiQY8Lr-13" edge="1">
          <mxGeometry width="50" height="50" relative="1" as="geometry">
            <mxPoint x="1740" y="1640" as="sourcePoint" />
            <mxPoint x="1630" y="1470" as="targetPoint" />
          </mxGeometry>
        </mxCell>
        <mxCell id="EPpzyMcfC1lIuWaVR3Jr-64" value="messaging&lt;br&gt;[RabbitMQ]" style="edgeLabel;html=1;align=center;verticalAlign=middle;resizable=0;points=[];" parent="EPpzyMcfC1lIuWaVR3Jr-63" vertex="1" connectable="0">
          <mxGeometry x="0.5888" relative="1" as="geometry">
            <mxPoint x="235" y="295" as="offset" />
          </mxGeometry>
        </mxCell>
        <mxCell id="EPpzyMcfC1lIuWaVR3Jr-66" value="" style="endArrow=classic;html=1;rounded=0;dashed=1;exitX=0.755;exitY=0.976;exitDx=0;exitDy=0;exitPerimeter=0;entryX=0;entryY=0.5;entryDx=0;entryDy=0;entryPerimeter=0;" parent="1" source="EPpzyMcfC1lIuWaVR3Jr-10" target="3N_IH-nqo6-VJ2Ea3Hy9-7" edge="1">
          <mxGeometry width="50" height="50" relative="1" as="geometry">
            <mxPoint x="1235" y="1690" as="sourcePoint" />
            <mxPoint x="1280" y="1778.9499999999998" as="targetPoint" />
          </mxGeometry>
        </mxCell>
        <mxCell id="EPpzyMcfC1lIuWaVR3Jr-67" value="messaging&lt;br&gt;[RabbitMQ]" style="edgeLabel;html=1;align=center;verticalAlign=middle;resizable=0;points=[];" parent="EPpzyMcfC1lIuWaVR3Jr-66" vertex="1" connectable="0">
          <mxGeometry x="0.5888" relative="1" as="geometry">
            <mxPoint x="-398" y="-11" as="offset" />
          </mxGeometry>
        </mxCell>
        <mxCell id="EPpzyMcfC1lIuWaVR3Jr-71" value="" style="endArrow=classic;startArrow=classic;html=1;rounded=0;dashed=1;exitX=0;exitY=0.5;exitDx=0;exitDy=0;exitPerimeter=0;entryX=0.5;entryY=0;entryDx=0;entryDy=0;entryPerimeter=0;" parent="1" source="iXwUmZw2ifD2mZiQY8Lr-34" target="3N_IH-nqo6-VJ2Ea3Hy9-33" edge="1">
          <mxGeometry width="50" height="50" relative="1" as="geometry">
            <mxPoint x="1376.8000000000002" y="1435.5700000000002" as="sourcePoint" />
            <mxPoint x="1468.1999999999998" y="1562.75" as="targetPoint" />
          </mxGeometry>
        </mxCell>
        <mxCell id="EPpzyMcfC1lIuWaVR3Jr-72" value="messaging&lt;br&gt;[RabbitMQ]" style="edgeLabel;html=1;align=center;verticalAlign=middle;resizable=0;points=[];" parent="EPpzyMcfC1lIuWaVR3Jr-71" vertex="1" connectable="0">
          <mxGeometry x="-0.1597" relative="1" as="geometry">
            <mxPoint x="-16" y="48" as="offset" />
          </mxGeometry>
        </mxCell>
        <mxCell id="EPpzyMcfC1lIuWaVR3Jr-76" value="" style="endArrow=classic;startArrow=classic;html=1;rounded=0;dashed=1;exitX=0.75;exitY=0.028;exitDx=0;exitDy=0;exitPerimeter=0;entryX=0.038;entryY=0.624;entryDx=0;entryDy=0;entryPerimeter=0;" parent="1" source="EPpzyMcfC1lIuWaVR3Jr-10" target="iXwUmZw2ifD2mZiQY8Lr-26" edge="1">
          <mxGeometry width="50" height="50" relative="1" as="geometry">
            <mxPoint x="908.6000000000001" y="1379.9999999999998" as="sourcePoint" />
            <mxPoint x="999.9999999999993" y="1507.1800000000005" as="targetPoint" />
          </mxGeometry>
        </mxCell>
        <mxCell id="EPpzyMcfC1lIuWaVR3Jr-77" value="messaging&lt;br&gt;[RabbitMQ]" style="edgeLabel;html=1;align=center;verticalAlign=middle;resizable=0;points=[];" parent="EPpzyMcfC1lIuWaVR3Jr-76" vertex="1" connectable="0">
          <mxGeometry x="-0.1597" relative="1" as="geometry">
            <mxPoint x="12" y="-26" as="offset" />
          </mxGeometry>
        </mxCell>
        <mxCell id="EPpzyMcfC1lIuWaVR3Jr-78" value="" style="endArrow=classic;startArrow=classic;html=1;rounded=0;dashed=1;exitX=0.767;exitY=0.035;exitDx=0;exitDy=0;exitPerimeter=0;entryX=0;entryY=0.5;entryDx=0;entryDy=0;entryPerimeter=0;" parent="1" source="iXwUmZw2ifD2mZiQY8Lr-30" target="iXwUmZw2ifD2mZiQY8Lr-26" edge="1">
          <mxGeometry width="50" height="50" relative="1" as="geometry">
            <mxPoint x="880.0000000000002" y="1362.8199999999997" as="sourcePoint" />
            <mxPoint x="971.3999999999994" y="1490.0000000000005" as="targetPoint" />
          </mxGeometry>
        </mxCell>
        <mxCell id="EPpzyMcfC1lIuWaVR3Jr-79" value="messaging&lt;br&gt;[RabbitMQ]" style="edgeLabel;html=1;align=center;verticalAlign=middle;resizable=0;points=[];" parent="EPpzyMcfC1lIuWaVR3Jr-78" vertex="1" connectable="0">
          <mxGeometry x="-0.1597" relative="1" as="geometry">
            <mxPoint x="84" y="-65" as="offset" />
          </mxGeometry>
        </mxCell>
        <mxCell id="EPpzyMcfC1lIuWaVR3Jr-80" value="" style="endArrow=classic;startArrow=classic;html=1;rounded=0;dashed=1;exitX=1;exitY=0.5;exitDx=0;exitDy=0;exitPerimeter=0;entryX=0.209;entryY=0.963;entryDx=0;entryDy=0;entryPerimeter=0;" parent="1" source="iXwUmZw2ifD2mZiQY8Lr-30" target="EPpzyMcfC1lIuWaVR3Jr-10" edge="1">
          <mxGeometry width="50" height="50" relative="1" as="geometry">
            <mxPoint x="800.0000000000002" y="1439.9999999999998" as="sourcePoint" />
            <mxPoint x="891.3999999999994" y="1567.1800000000005" as="targetPoint" />
          </mxGeometry>
        </mxCell>
        <mxCell id="EPpzyMcfC1lIuWaVR3Jr-81" value="messaging&lt;br&gt;[RabbitMQ]" style="edgeLabel;html=1;align=center;verticalAlign=middle;resizable=0;points=[];" parent="EPpzyMcfC1lIuWaVR3Jr-80" vertex="1" connectable="0">
          <mxGeometry x="-0.1597" relative="1" as="geometry">
            <mxPoint x="3" y="-3" as="offset" />
          </mxGeometry>
        </mxCell>
        <mxCell id="EPpzyMcfC1lIuWaVR3Jr-83" value="" style="endArrow=classic;html=1;rounded=0;dashed=1;exitX=0.922;exitY=0.672;exitDx=0;exitDy=0;exitPerimeter=0;" parent="1" source="EPpzyMcfC1lIuWaVR3Jr-6" edge="1">
          <mxGeometry width="50" height="50" relative="1" as="geometry">
            <mxPoint x="1189.9999999999995" y="1230" as="sourcePoint" />
            <mxPoint x="1730" y="1640" as="targetPoint" />
          </mxGeometry>
        </mxCell>
        <mxCell id="EPpzyMcfC1lIuWaVR3Jr-84" value="messaging&lt;br&gt;[RabbitMQ]" style="edgeLabel;html=1;align=center;verticalAlign=middle;resizable=0;points=[];" parent="EPpzyMcfC1lIuWaVR3Jr-83" vertex="1" connectable="0">
          <mxGeometry x="0.5888" relative="1" as="geometry">
            <mxPoint x="-559" y="-440" as="offset" />
          </mxGeometry>
        </mxCell>
        <mxCell id="FHfmxrOHBSSrBBED93lN-1" value="" style="endArrow=classic;startArrow=classic;html=1;rounded=0;dashed=1;exitX=0.166;exitY=0.153;exitDx=0;exitDy=0;exitPerimeter=0;entryX=0.992;entryY=0.05;entryDx=0;entryDy=0;entryPerimeter=0;" parent="1" source="EPpzyMcfC1lIuWaVR3Jr-40" target="iXwUmZw2ifD2mZiQY8Lr-13" edge="1">
          <mxGeometry width="50" height="50" relative="1" as="geometry">
            <mxPoint x="1480" y="950.48" as="sourcePoint" />
            <mxPoint x="1481.1999999999998" y="849.52" as="targetPoint" />
          </mxGeometry>
        </mxCell>
        <mxCell id="FHfmxrOHBSSrBBED93lN-2" value="messaging&lt;br&gt;[graphql/websocket]" style="edgeLabel;html=1;align=center;verticalAlign=middle;resizable=0;points=[];" parent="FHfmxrOHBSSrBBED93lN-1" vertex="1" connectable="0">
          <mxGeometry x="-0.1597" relative="1" as="geometry">
            <mxPoint x="-7" y="-10" as="offset" />
          </mxGeometry>
        </mxCell>
        <mxCell id="1uoCBxbmReuqHe8IM6uu-11" style="edgeStyle=orthogonalEdgeStyle;rounded=0;orthogonalLoop=1;jettySize=auto;html=1;exitX=0.5;exitY=1;exitDx=0;exitDy=0;exitPerimeter=0;entryX=0.5;entryY=0;entryDx=0;entryDy=0;entryPerimeter=0;" parent="1" source="1uoCBxbmReuqHe8IM6uu-1" target="iXwUmZw2ifD2mZiQY8Lr-13" edge="1">
          <mxGeometry relative="1" as="geometry" />
        </mxCell>
        <object placeholders="1" c4Name="Front-End" c4Type="Container" c4Technology="React Native + TypeScript, Apollo Client" c4Description="Front end application which runs in an Android device." label="&lt;font style=&quot;font-size: 16px&quot;&gt;&lt;b&gt;%c4Name%&lt;/b&gt;&lt;/font&gt;&lt;div&gt;[%c4Type%: %c4Technology%]&lt;/div&gt;&lt;br&gt;&lt;div&gt;&lt;font style=&quot;font-size: 11px&quot;&gt;&lt;font color=&quot;#E6E6E6&quot;&gt;%c4Description%&lt;/font&gt;&lt;/div&gt;" id="1uoCBxbmReuqHe8IM6uu-1">
          <mxCell style="rounded=1;whiteSpace=wrap;html=1;fontSize=11;labelBackgroundColor=none;fillColor=#23A2D9;fontColor=#ffffff;align=center;arcSize=10;strokeColor=#0E7DAD;metaEdit=1;resizable=0;points=[[0.25,0,0],[0.5,0,0],[0.75,0,0],[1,0.25,0],[1,0.5,0],[1,0.75,0],[0.75,1,0],[0.5,1,0],[0.25,1,0],[0,0.75,0],[0,0.5,0],[0,0.25,0]];" parent="1" vertex="1">
            <mxGeometry x="900" y="720" width="240" height="120" as="geometry" />
          </mxCell>
        </object>
        <mxCell id="1uoCBxbmReuqHe8IM6uu-12" style="edgeStyle=orthogonalEdgeStyle;rounded=0;orthogonalLoop=1;jettySize=auto;html=1;exitX=0.5;exitY=1;exitDx=0;exitDy=0;exitPerimeter=0;entryX=0.5;entryY=0;entryDx=0;entryDy=0;entryPerimeter=0;" parent="1" source="1uoCBxbmReuqHe8IM6uu-2" target="iXwUmZw2ifD2mZiQY8Lr-13" edge="1">
          <mxGeometry relative="1" as="geometry" />
        </mxCell>
        <object placeholders="1" c4Name="Front-End" c4Type="Container" c4Technology="React Native + TypeScript, Apollo Client" c4Description="Front end application which runs in an iOS device." label="&lt;font style=&quot;font-size: 16px&quot;&gt;&lt;b&gt;%c4Name%&lt;/b&gt;&lt;/font&gt;&lt;div&gt;[%c4Type%: %c4Technology%]&lt;/div&gt;&lt;br&gt;&lt;div&gt;&lt;font style=&quot;font-size: 11px&quot;&gt;&lt;font color=&quot;#E6E6E6&quot;&gt;%c4Description%&lt;/font&gt;&lt;/div&gt;" id="1uoCBxbmReuqHe8IM6uu-2">
          <mxCell style="rounded=1;whiteSpace=wrap;html=1;fontSize=11;labelBackgroundColor=none;fillColor=#23A2D9;fontColor=#ffffff;align=center;arcSize=10;strokeColor=#0E7DAD;metaEdit=1;resizable=0;points=[[0.25,0,0],[0.5,0,0],[0.75,0,0],[1,0.25,0],[1,0.5,0],[1,0.75,0],[0.75,1,0],[0.5,1,0],[0.25,1,0],[0,0.75,0],[0,0.5,0],[0,0.25,0]];" parent="1" vertex="1">
            <mxGeometry x="1410" y="720" width="240" height="120" as="geometry" />
          </mxCell>
        </object>
        <mxCell id="1uoCBxbmReuqHe8IM6uu-13" value="" style="endArrow=classic;startArrow=classic;html=1;rounded=0;dashed=1;exitX=0.061;exitY=-0.028;exitDx=0;exitDy=0;exitPerimeter=0;entryX=0.75;entryY=1;entryDx=0;entryDy=0;entryPerimeter=0;" parent="1" source="iXwUmZw2ifD2mZiQY8Lr-13" target="1uoCBxbmReuqHe8IM6uu-1" edge="1">
          <mxGeometry width="50" height="50" relative="1" as="geometry">
            <mxPoint x="1199.9999999999995" y="1060" as="sourcePoint" />
            <mxPoint x="1199.9999999999995" y="840" as="targetPoint" />
          </mxGeometry>
        </mxCell>
        <mxCell id="1uoCBxbmReuqHe8IM6uu-14" value="messaging&lt;br&gt;[graphql/websocket]" style="edgeLabel;html=1;align=center;verticalAlign=middle;resizable=0;points=[];" parent="1uoCBxbmReuqHe8IM6uu-13" vertex="1" connectable="0">
          <mxGeometry x="-0.1597" relative="1" as="geometry">
            <mxPoint x="-40" y="-68" as="offset" />
          </mxGeometry>
        </mxCell>
        <mxCell id="1uoCBxbmReuqHe8IM6uu-15" value="" style="endArrow=classic;startArrow=classic;html=1;rounded=0;dashed=1;exitX=0.75;exitY=0;exitDx=0;exitDy=0;exitPerimeter=0;entryX=0.75;entryY=1;entryDx=0;entryDy=0;entryPerimeter=0;" parent="1" source="iXwUmZw2ifD2mZiQY8Lr-13" target="S9X2690wDx_Z-8uSn3eG-30" edge="1">
          <mxGeometry width="50" height="50" relative="1" as="geometry">
            <mxPoint x="1354.9999999999995" y="1080" as="sourcePoint" />
            <mxPoint x="1354.9999999999995" y="860" as="targetPoint" />
          </mxGeometry>
        </mxCell>
        <mxCell id="1uoCBxbmReuqHe8IM6uu-16" value="messaging&lt;br&gt;[graphql/websocket]" style="edgeLabel;html=1;align=center;verticalAlign=middle;resizable=0;points=[];" parent="1uoCBxbmReuqHe8IM6uu-15" vertex="1" connectable="0">
          <mxGeometry x="-0.1597" relative="1" as="geometry">
            <mxPoint x="5" y="-87" as="offset" />
          </mxGeometry>
        </mxCell>
        <mxCell id="bZUuPnCU8CiIS-W2vd6K-1" value="" style="group" parent="1" vertex="1" connectable="0">
          <mxGeometry x="300" y="1190" width="240" height="340" as="geometry" />
        </mxCell>
        <object placeholders="1" c4Type="Order Queue" c4Container="Container" c4Technology="NestJS + TypeScript" c4Description="Handles operations for queuing orders and assigning couriers." label="&lt;font style=&quot;font-size: 16px&quot;&gt;&lt;b&gt;%c4Type%&lt;/b&gt;&lt;/font&gt;&lt;div&gt;[%c4Container%:&amp;nbsp;%c4Technology%]&lt;/div&gt;&lt;br&gt;&lt;div&gt;&lt;font style=&quot;font-size: 11px&quot;&gt;&lt;font color=&quot;#E6E6E6&quot;&gt;%c4Description%&lt;/font&gt;&lt;/div&gt;" id="bZUuPnCU8CiIS-W2vd6K-2">
          <mxCell style="shape=hexagon;size=50;perimeter=hexagonPerimeter2;whiteSpace=wrap;html=1;fixedSize=1;rounded=1;labelBackgroundColor=none;fillColor=#23A2D9;fontSize=12;fontColor=#ffffff;align=center;strokeColor=#0E7DAD;metaEdit=1;points=[[0.5,0,0],[1,0.25,0],[1,0.5,0],[1,0.75,0],[0.5,1,0],[0,0.75,0],[0,0.5,0],[0,0.25,0]];resizable=0;container=0;" parent="bZUuPnCU8CiIS-W2vd6K-1" vertex="1">
            <mxGeometry x="20" width="200" height="170" as="geometry" />
          </mxCell>
        </object>
        <object placeholders="1" c4Type="OrderQueueDB" c4Container="Container" c4Technology="MySQL" c4Description="Stores data about order queues." label="&lt;font style=&quot;font-size: 16px&quot;&gt;&lt;b&gt;%c4Type%&lt;/b&gt;&lt;/font&gt;&lt;div&gt;[%c4Container%:&amp;nbsp;%c4Technology%]&lt;/div&gt;&lt;br&gt;&lt;div&gt;&lt;font style=&quot;font-size: 11px&quot;&gt;&lt;font color=&quot;#E6E6E6&quot;&gt;%c4Description%&lt;/font&gt;&lt;/div&gt;" id="bZUuPnCU8CiIS-W2vd6K-3">
          <mxCell style="shape=cylinder3;size=15;whiteSpace=wrap;html=1;boundedLbl=1;rounded=0;labelBackgroundColor=none;fillColor=#23A2D9;fontSize=12;fontColor=#ffffff;align=center;strokeColor=#0E7DAD;metaEdit=1;points=[[0.5,0,0],[1,0.25,0],[1,0.5,0],[1,0.75,0],[0.5,1,0],[0,0.75,0],[0,0.5,0],[0,0.25,0]];resizable=0;container=0;" parent="bZUuPnCU8CiIS-W2vd6K-1" vertex="1">
            <mxGeometry y="220" width="240" height="120" as="geometry" />
          </mxCell>
        </object>
        <mxCell id="bZUuPnCU8CiIS-W2vd6K-4" value="reads from and writes to" style="edgeStyle=orthogonalEdgeStyle;rounded=0;orthogonalLoop=1;jettySize=auto;html=1;exitX=0.5;exitY=1;exitDx=0;exitDy=0;exitPerimeter=0;entryX=0.5;entryY=0;entryDx=0;entryDy=0;entryPerimeter=0;" parent="bZUuPnCU8CiIS-W2vd6K-1" source="bZUuPnCU8CiIS-W2vd6K-2" target="bZUuPnCU8CiIS-W2vd6K-3" edge="1">
          <mxGeometry relative="1" as="geometry" />
        </mxCell>
        <mxCell id="bZUuPnCU8CiIS-W2vd6K-5" value="" style="endArrow=classic;startArrow=classic;html=1;rounded=0;dashed=1;exitX=1;exitY=0.5;exitDx=0;exitDy=0;exitPerimeter=0;entryX=0.061;entryY=0.36;entryDx=0;entryDy=0;entryPerimeter=0;" parent="1" source="bZUuPnCU8CiIS-W2vd6K-2" target="iXwUmZw2ifD2mZiQY8Lr-26" edge="1">
          <mxGeometry width="50" height="50" relative="1" as="geometry">
            <mxPoint x="961" y="940" as="sourcePoint" />
            <mxPoint x="830" y="1360" as="targetPoint" />
          </mxGeometry>
        </mxCell>
        <mxCell id="bZUuPnCU8CiIS-W2vd6K-6" value="messaging&lt;br&gt;[RabbitMQ]" style="edgeLabel;html=1;align=center;verticalAlign=middle;resizable=0;points=[];" parent="bZUuPnCU8CiIS-W2vd6K-5" vertex="1" connectable="0">
          <mxGeometry x="-0.1597" relative="1" as="geometry">
            <mxPoint x="50" y="10" as="offset" />
          </mxGeometry>
        </mxCell>
      </root>
    </mxGraphModel>
  </diagram>
  <diagram id="Yl5dX2oAXl6aMEn9Fc1_" name="C2 - realistic">
    <mxGraphModel dx="2216" dy="804" grid="1" gridSize="10" guides="1" tooltips="1" connect="1" arrows="1" fold="1" page="1" pageScale="1" pageWidth="850" pageHeight="1100" math="0" shadow="0">
      <root>
        <mxCell id="0" />
        <mxCell id="1" parent="0" />
        <mxCell id="7lm6hXblk5zsbcoGaR_Y-1" style="edgeStyle=orthogonalEdgeStyle;rounded=0;orthogonalLoop=1;jettySize=auto;html=1;exitX=0.5;exitY=1;exitDx=0;exitDy=0;exitPerimeter=0;entryX=0.5;entryY=0;entryDx=0;entryDy=0;entryPerimeter=0;" parent="1" source="7lm6hXblk5zsbcoGaR_Y-3" target="7lm6hXblk5zsbcoGaR_Y-11" edge="1">
          <mxGeometry relative="1" as="geometry" />
        </mxCell>
        <mxCell id="7lm6hXblk5zsbcoGaR_Y-2" value="rest/https" style="edgeLabel;html=1;align=center;verticalAlign=middle;resizable=0;points=[];" parent="7lm6hXblk5zsbcoGaR_Y-1" vertex="1" connectable="0">
          <mxGeometry x="-0.1714" relative="1" as="geometry">
            <mxPoint as="offset" />
          </mxGeometry>
        </mxCell>
        <object placeholders="1" c4Name="Load Tester" c4Type="Container" c4Technology="Node.js, Apache JMeter" c4Description="Performance testing script." label="&lt;font style=&quot;font-size: 16px&quot;&gt;&lt;b&gt;%c4Name%&lt;/b&gt;&lt;/font&gt;&lt;div&gt;[%c4Type%: %c4Technology%]&lt;/div&gt;&lt;br&gt;&lt;div&gt;&lt;font style=&quot;font-size: 11px&quot;&gt;&lt;font color=&quot;#E6E6E6&quot;&gt;%c4Description%&lt;/font&gt;&lt;/div&gt;" id="7lm6hXblk5zsbcoGaR_Y-3">
          <mxCell style="rounded=1;whiteSpace=wrap;html=1;fontSize=11;labelBackgroundColor=none;fillColor=#23A2D9;fontColor=#ffffff;align=center;arcSize=10;strokeColor=#0E7DAD;metaEdit=1;resizable=0;points=[[0.25,0,0],[0.5,0,0],[0.75,0,0],[1,0.25,0],[1,0.5,0],[1,0.75,0],[0.75,1,0],[0.5,1,0],[0.25,1,0],[0,0.75,0],[0,0.5,0],[0,0.25,0]];" parent="1" vertex="1">
            <mxGeometry x="-581" y="310" width="240" height="120" as="geometry" />
          </mxCell>
        </object>
        <object placeholders="1" c4Name="API Gateway" c4Type="Container" c4Technology="NestJS + TypeScript" c4Description="Receives requests and routes them to microservices." label="&lt;font style=&quot;font-size: 16px&quot;&gt;&lt;b&gt;%c4Name%&lt;/b&gt;&lt;/font&gt;&lt;div&gt;[%c4Type%: %c4Technology%]&lt;/div&gt;&lt;br&gt;&lt;div&gt;&lt;font style=&quot;font-size: 11px&quot;&gt;&lt;font color=&quot;#E6E6E6&quot;&gt;%c4Description%&lt;/font&gt;&lt;/div&gt;" id="7lm6hXblk5zsbcoGaR_Y-11">
          <mxCell style="rounded=1;whiteSpace=wrap;html=1;fontSize=11;labelBackgroundColor=none;fillColor=#23A2D9;fontColor=#ffffff;align=center;arcSize=10;strokeColor=#0E7DAD;metaEdit=1;resizable=0;points=[[0.25,0,0],[0.5,0,0],[0.75,0,0],[1,0.25,0],[1,0.5,0],[1,0.75,0],[0.75,1,0],[0.5,1,0],[0.25,1,0],[0,0.75,0],[0,0.5,0],[0,0.25,0]];" parent="1" vertex="1">
            <mxGeometry x="-581" y="530" width="240" height="120" as="geometry" />
          </mxCell>
        </object>
        <mxCell id="7lm6hXblk5zsbcoGaR_Y-12" value="" style="group" parent="1" vertex="1" connectable="0">
          <mxGeometry x="-820" y="690" width="240" height="340" as="geometry" />
        </mxCell>
        <object placeholders="1" c4Type="User" c4Container="Container" c4Technology="NestJS + TypeScript" c4Description="Handles authentication and authorization." label="&lt;font style=&quot;font-size: 16px&quot;&gt;&lt;b&gt;%c4Type%&lt;/b&gt;&lt;/font&gt;&lt;div&gt;[%c4Container%:&amp;nbsp;%c4Technology%]&lt;/div&gt;&lt;br&gt;&lt;div&gt;&lt;font style=&quot;font-size: 11px&quot;&gt;&lt;font color=&quot;#E6E6E6&quot;&gt;%c4Description%&lt;/font&gt;&lt;/div&gt;" id="7lm6hXblk5zsbcoGaR_Y-13">
          <mxCell style="shape=hexagon;size=50;perimeter=hexagonPerimeter2;whiteSpace=wrap;html=1;fixedSize=1;rounded=1;labelBackgroundColor=none;fillColor=#23A2D9;fontSize=12;fontColor=#ffffff;align=center;strokeColor=#0E7DAD;metaEdit=1;points=[[0.5,0,0],[1,0.25,0],[1,0.5,0],[1,0.75,0],[0.5,1,0],[0,0.75,0],[0,0.5,0],[0,0.25,0]];resizable=0;" parent="7lm6hXblk5zsbcoGaR_Y-12" vertex="1">
            <mxGeometry x="20" width="200" height="170" as="geometry" />
          </mxCell>
        </object>
        <object placeholders="1" c4Type="UserDB" c4Container="Container" c4Technology="MySQL" c4Description="Stores authentication credentials, and roles of users." label="&lt;font style=&quot;font-size: 16px&quot;&gt;&lt;b&gt;%c4Type%&lt;/b&gt;&lt;/font&gt;&lt;div&gt;[%c4Container%:&amp;nbsp;%c4Technology%]&lt;/div&gt;&lt;br&gt;&lt;div&gt;&lt;font style=&quot;font-size: 11px&quot;&gt;&lt;font color=&quot;#E6E6E6&quot;&gt;%c4Description%&lt;/font&gt;&lt;/div&gt;" id="7lm6hXblk5zsbcoGaR_Y-14">
          <mxCell style="shape=cylinder3;size=15;whiteSpace=wrap;html=1;boundedLbl=1;rounded=0;labelBackgroundColor=none;fillColor=#23A2D9;fontSize=12;fontColor=#ffffff;align=center;strokeColor=#0E7DAD;metaEdit=1;points=[[0.5,0,0],[1,0.25,0],[1,0.5,0],[1,0.75,0],[0.5,1,0],[0,0.75,0],[0,0.5,0],[0,0.25,0]];resizable=0;" parent="7lm6hXblk5zsbcoGaR_Y-12" vertex="1">
            <mxGeometry y="220" width="240" height="120" as="geometry" />
          </mxCell>
        </object>
        <mxCell id="7lm6hXblk5zsbcoGaR_Y-15" value="&lt;span style=&quot;color: rgb(0, 0, 0); font-family: Helvetica; font-size: 11px; font-style: normal; font-variant-ligatures: normal; font-variant-caps: normal; font-weight: 400; letter-spacing: normal; orphans: 2; text-align: center; text-indent: 0px; text-transform: none; widows: 2; word-spacing: 0px; -webkit-text-stroke-width: 0px; background-color: rgb(255, 255, 255); text-decoration-thickness: initial; text-decoration-style: initial; text-decoration-color: initial; float: none; display: inline !important;&quot;&gt;reads from and writes to&lt;/span&gt;" style="edgeStyle=orthogonalEdgeStyle;rounded=0;orthogonalLoop=1;jettySize=auto;html=1;exitX=0.5;exitY=1;exitDx=0;exitDy=0;exitPerimeter=0;" parent="7lm6hXblk5zsbcoGaR_Y-12" source="7lm6hXblk5zsbcoGaR_Y-13" target="7lm6hXblk5zsbcoGaR_Y-14" edge="1">
          <mxGeometry relative="1" as="geometry" />
        </mxCell>
        <mxCell id="7lm6hXblk5zsbcoGaR_Y-16" value="" style="group" parent="1" vertex="1" connectable="0">
          <mxGeometry x="-342" y="690" width="240" height="340" as="geometry" />
        </mxCell>
        <object placeholders="1" c4Type="Order" c4Container="Container" c4Technology="NestJS + TypeScript" c4Description="Handles operations for orders." label="&lt;font style=&quot;font-size: 16px&quot;&gt;&lt;b&gt;%c4Type%&lt;/b&gt;&lt;/font&gt;&lt;div&gt;[%c4Container%:&amp;nbsp;%c4Technology%]&lt;/div&gt;&lt;br&gt;&lt;div&gt;&lt;font style=&quot;font-size: 11px&quot;&gt;&lt;font color=&quot;#E6E6E6&quot;&gt;%c4Description%&lt;/font&gt;&lt;/div&gt;" id="7lm6hXblk5zsbcoGaR_Y-17">
          <mxCell style="shape=hexagon;size=50;perimeter=hexagonPerimeter2;whiteSpace=wrap;html=1;fixedSize=1;rounded=1;labelBackgroundColor=none;fillColor=#23A2D9;fontSize=12;fontColor=#ffffff;align=center;strokeColor=#0E7DAD;metaEdit=1;points=[[0.5,0,0],[1,0.25,0],[1,0.5,0],[1,0.75,0],[0.5,1,0],[0,0.75,0],[0,0.5,0],[0,0.25,0]];resizable=0;container=0;" parent="7lm6hXblk5zsbcoGaR_Y-16" vertex="1">
            <mxGeometry x="20" width="200" height="170" as="geometry" />
          </mxCell>
        </object>
        <object placeholders="1" c4Type="OrderDB" c4Container="Container" c4Technology="MySQL" c4Description="Stores data about orders." label="&lt;font style=&quot;font-size: 16px&quot;&gt;&lt;b&gt;%c4Type%&lt;/b&gt;&lt;/font&gt;&lt;div&gt;[%c4Container%:&amp;nbsp;%c4Technology%]&lt;/div&gt;&lt;br&gt;&lt;div&gt;&lt;font style=&quot;font-size: 11px&quot;&gt;&lt;font color=&quot;#E6E6E6&quot;&gt;%c4Description%&lt;/font&gt;&lt;/div&gt;" id="7lm6hXblk5zsbcoGaR_Y-18">
          <mxCell style="shape=cylinder3;size=15;whiteSpace=wrap;html=1;boundedLbl=1;rounded=0;labelBackgroundColor=none;fillColor=#23A2D9;fontSize=12;fontColor=#ffffff;align=center;strokeColor=#0E7DAD;metaEdit=1;points=[[0.5,0,0],[1,0.25,0],[1,0.5,0],[1,0.75,0],[0.5,1,0],[0,0.75,0],[0,0.5,0],[0,0.25,0]];resizable=0;container=0;" parent="7lm6hXblk5zsbcoGaR_Y-16" vertex="1">
            <mxGeometry y="220" width="240" height="120" as="geometry" />
          </mxCell>
        </object>
        <mxCell id="7lm6hXblk5zsbcoGaR_Y-19" value="reads from and writes to" style="edgeStyle=orthogonalEdgeStyle;rounded=0;orthogonalLoop=1;jettySize=auto;html=1;exitX=0.5;exitY=1;exitDx=0;exitDy=0;exitPerimeter=0;entryX=0.5;entryY=0;entryDx=0;entryDy=0;entryPerimeter=0;" parent="7lm6hXblk5zsbcoGaR_Y-16" source="7lm6hXblk5zsbcoGaR_Y-17" target="7lm6hXblk5zsbcoGaR_Y-18" edge="1">
          <mxGeometry relative="1" as="geometry" />
        </mxCell>
        <mxCell id="7lm6hXblk5zsbcoGaR_Y-29" value="" style="endArrow=classic;startArrow=classic;html=1;rounded=0;dashed=1;exitX=0.927;exitY=-0.004;exitDx=0;exitDy=0;exitPerimeter=0;entryX=0.932;entryY=0.988;entryDx=0;entryDy=0;entryPerimeter=0;" parent="1" source="7lm6hXblk5zsbcoGaR_Y-11" target="7lm6hXblk5zsbcoGaR_Y-3" edge="1">
          <mxGeometry width="50" height="50" relative="1" as="geometry">
            <mxPoint x="-675.9999999999998" y="540.4099999999999" as="sourcePoint" />
            <mxPoint x="-573" y="433" as="targetPoint" />
          </mxGeometry>
        </mxCell>
        <mxCell id="7lm6hXblk5zsbcoGaR_Y-30" value="messaging&lt;br&gt;[websocket/stomp]" style="edgeLabel;html=1;align=center;verticalAlign=middle;resizable=0;points=[];" parent="7lm6hXblk5zsbcoGaR_Y-29" vertex="1" connectable="0">
          <mxGeometry x="-0.1597" relative="1" as="geometry">
            <mxPoint x="-3" y="-18" as="offset" />
          </mxGeometry>
        </mxCell>
        <mxCell id="7lm6hXblk5zsbcoGaR_Y-31" style="edgeStyle=orthogonalEdgeStyle;rounded=0;orthogonalLoop=1;jettySize=auto;html=1;exitX=0.5;exitY=1;exitDx=0;exitDy=0;exitPerimeter=0;entryX=0.5;entryY=0;entryDx=0;entryDy=0;entryPerimeter=0;" parent="1" source="7lm6hXblk5zsbcoGaR_Y-32" target="7lm6hXblk5zsbcoGaR_Y-3" edge="1">
          <mxGeometry relative="1" as="geometry" />
        </mxCell>
        <object placeholders="1" c4Name="Customer" c4Type="Person" c4Description="Responsible for placing orders/meal subscriptions." label="&lt;font style=&quot;font-size: 16px&quot;&gt;&lt;b&gt;%c4Name%&lt;/b&gt;&lt;/font&gt;&lt;div&gt;[%c4Type%]&lt;/div&gt;&lt;br&gt;&lt;div&gt;&lt;font style=&quot;font-size: 11px&quot;&gt;&lt;font color=&quot;#cccccc&quot;&gt;%c4Description%&lt;/font&gt;&lt;/div&gt;" id="7lm6hXblk5zsbcoGaR_Y-32">
          <mxCell style="html=1;fontSize=11;dashed=0;whiteSpace=wrap;fillColor=#083F75;strokeColor=#06315C;fontColor=#ffffff;shape=mxgraph.c4.person2;align=center;metaEdit=1;points=[[0.5,0,0],[1,0.5,0],[1,0.75,0],[0.75,1,0],[0.5,1,0],[0.25,1,0],[0,0.75,0],[0,0.5,0]];resizable=0;rounded=1;" parent="1" vertex="1">
            <mxGeometry x="-771" width="200" height="180" as="geometry" />
          </mxCell>
        </object>
        <mxCell id="7lm6hXblk5zsbcoGaR_Y-35" style="edgeStyle=orthogonalEdgeStyle;rounded=0;orthogonalLoop=1;jettySize=auto;html=1;exitX=0.5;exitY=1;exitDx=0;exitDy=0;exitPerimeter=0;entryX=0.5;entryY=0;entryDx=0;entryDy=0;entryPerimeter=0;" parent="1" source="7lm6hXblk5zsbcoGaR_Y-36" target="7lm6hXblk5zsbcoGaR_Y-3" edge="1">
          <mxGeometry relative="1" as="geometry" />
        </mxCell>
        <object placeholders="1" c4Name="Chef" c4Type="Person" c4Description="Responsible for managing meals/meal plans." label="&lt;font style=&quot;font-size: 16px&quot;&gt;&lt;b&gt;%c4Name%&lt;/b&gt;&lt;/font&gt;&lt;div&gt;[%c4Type%]&lt;/div&gt;&lt;br&gt;&lt;div&gt;&lt;font style=&quot;font-size: 11px&quot;&gt;&lt;font color=&quot;#cccccc&quot;&gt;%c4Description%&lt;/font&gt;&lt;/div&gt;" id="7lm6hXblk5zsbcoGaR_Y-36">
          <mxCell style="html=1;fontSize=11;dashed=0;whiteSpace=wrap;fillColor=#083F75;strokeColor=#06315C;fontColor=#ffffff;shape=mxgraph.c4.person2;align=center;metaEdit=1;points=[[0.5,0,0],[1,0.5,0],[1,0.75,0],[0.75,1,0],[0.5,1,0],[0.25,1,0],[0,0.75,0],[0,0.5,0]];resizable=0;rounded=1;" parent="1" vertex="1">
            <mxGeometry x="-351" width="200" height="180" as="geometry" />
          </mxCell>
        </object>
        <mxCell id="7lm6hXblk5zsbcoGaR_Y-51" value="" style="endArrow=classic;startArrow=classic;html=1;rounded=0;dashed=1;exitX=0.763;exitY=0.018;exitDx=0;exitDy=0;exitPerimeter=0;entryX=0;entryY=0.5;entryDx=0;entryDy=0;entryPerimeter=0;" parent="1" source="7lm6hXblk5zsbcoGaR_Y-54" target="7lm6hXblk5zsbcoGaR_Y-17" edge="1">
          <mxGeometry width="50" height="50" relative="1" as="geometry">
            <mxPoint x="-413.60000000000036" y="795.9499999999998" as="sourcePoint" />
            <mxPoint x="-530.6000000000006" y="860.0000000000005" as="targetPoint" />
          </mxGeometry>
        </mxCell>
        <mxCell id="7lm6hXblk5zsbcoGaR_Y-52" value="messaging&lt;br&gt;[RabbitMQ]" style="edgeLabel;html=1;align=center;verticalAlign=middle;resizable=0;points=[];" parent="7lm6hXblk5zsbcoGaR_Y-51" vertex="1" connectable="0">
          <mxGeometry x="-0.1597" relative="1" as="geometry">
            <mxPoint x="11" y="-7" as="offset" />
          </mxGeometry>
        </mxCell>
        <mxCell id="7lm6hXblk5zsbcoGaR_Y-53" value="" style="group" parent="1" vertex="1" connectable="0">
          <mxGeometry x="-580" y="790" width="240" height="340" as="geometry" />
        </mxCell>
        <object placeholders="1" c4Type="Product" c4Container="Container" c4Technology="NestJS + TypeScript" c4Description="Handles operations for products, including price and stock." label="&lt;font style=&quot;font-size: 16px&quot;&gt;&lt;b&gt;%c4Type%&lt;/b&gt;&lt;/font&gt;&lt;div&gt;[%c4Container%:&amp;nbsp;%c4Technology%]&lt;/div&gt;&lt;br&gt;&lt;div&gt;&lt;font style=&quot;font-size: 11px&quot;&gt;&lt;font color=&quot;#E6E6E6&quot;&gt;%c4Description%&lt;/font&gt;&lt;/div&gt;" id="7lm6hXblk5zsbcoGaR_Y-54">
          <mxCell style="shape=hexagon;size=50;perimeter=hexagonPerimeter2;whiteSpace=wrap;html=1;fixedSize=1;rounded=1;labelBackgroundColor=none;fillColor=#23A2D9;fontSize=12;fontColor=#ffffff;align=center;strokeColor=#0E7DAD;metaEdit=1;points=[[0.5,0,0],[1,0.25,0],[1,0.5,0],[1,0.75,0],[0.5,1,0],[0,0.75,0],[0,0.5,0],[0,0.25,0]];resizable=0;container=0;" parent="7lm6hXblk5zsbcoGaR_Y-53" vertex="1">
            <mxGeometry x="20" width="200" height="170" as="geometry" />
          </mxCell>
        </object>
        <object placeholders="1" c4Type="ProductDB" c4Container="Container" c4Technology="MySQL" c4Description="Stores data about products." label="&lt;font style=&quot;font-size: 16px&quot;&gt;&lt;b&gt;%c4Type%&lt;/b&gt;&lt;/font&gt;&lt;div&gt;[%c4Container%:&amp;nbsp;%c4Technology%]&lt;/div&gt;&lt;br&gt;&lt;div&gt;&lt;font style=&quot;font-size: 11px&quot;&gt;&lt;font color=&quot;#E6E6E6&quot;&gt;%c4Description%&lt;/font&gt;&lt;/div&gt;" id="7lm6hXblk5zsbcoGaR_Y-55">
          <mxCell style="shape=cylinder3;size=15;whiteSpace=wrap;html=1;boundedLbl=1;rounded=0;labelBackgroundColor=none;fillColor=#23A2D9;fontSize=12;fontColor=#ffffff;align=center;strokeColor=#0E7DAD;metaEdit=1;points=[[0.5,0,0],[1,0.25,0],[1,0.5,0],[1,0.75,0],[0.5,1,0],[0,0.75,0],[0,0.5,0],[0,0.25,0]];resizable=0;container=0;" parent="7lm6hXblk5zsbcoGaR_Y-53" vertex="1">
            <mxGeometry y="220" width="240" height="120" as="geometry" />
          </mxCell>
        </object>
        <mxCell id="7lm6hXblk5zsbcoGaR_Y-56" value="&lt;span style=&quot;color: rgb(0, 0, 0); font-family: Helvetica; font-size: 11px; font-style: normal; font-variant-ligatures: normal; font-variant-caps: normal; font-weight: 400; letter-spacing: normal; orphans: 2; text-align: center; text-indent: 0px; text-transform: none; widows: 2; word-spacing: 0px; -webkit-text-stroke-width: 0px; background-color: rgb(255, 255, 255); text-decoration-thickness: initial; text-decoration-style: initial; text-decoration-color: initial; float: none; display: inline !important;&quot;&gt;reads from and writes to&lt;/span&gt;" style="edgeStyle=orthogonalEdgeStyle;rounded=0;orthogonalLoop=1;jettySize=auto;html=1;exitX=0.5;exitY=1;exitDx=0;exitDy=0;exitPerimeter=0;entryX=0.5;entryY=0;entryDx=0;entryDy=0;entryPerimeter=0;" parent="7lm6hXblk5zsbcoGaR_Y-53" source="7lm6hXblk5zsbcoGaR_Y-54" target="7lm6hXblk5zsbcoGaR_Y-55" edge="1">
          <mxGeometry relative="1" as="geometry" />
        </mxCell>
        <mxCell id="-t4GW8n7cNSp23lOn8YB-1" style="edgeStyle=orthogonalEdgeStyle;rounded=0;orthogonalLoop=1;jettySize=auto;html=1;exitX=0.5;exitY=1;exitDx=0;exitDy=0;exitPerimeter=0;entryX=0.5;entryY=0;entryDx=0;entryDy=0;entryPerimeter=0;" parent="1" target="7lm6hXblk5zsbcoGaR_Y-54" edge="1">
          <mxGeometry relative="1" as="geometry">
            <mxPoint x="-460" y="680" as="sourcePoint" />
          </mxGeometry>
        </mxCell>
        <mxCell id="-t4GW8n7cNSp23lOn8YB-2" style="edgeStyle=orthogonalEdgeStyle;rounded=0;orthogonalLoop=1;jettySize=auto;html=1;exitX=0.5;exitY=1;exitDx=0;exitDy=0;exitPerimeter=0;entryX=0.5;entryY=0;entryDx=0;entryDy=0;entryPerimeter=0;" parent="1" source="7lm6hXblk5zsbcoGaR_Y-11" target="7lm6hXblk5zsbcoGaR_Y-13" edge="1">
          <mxGeometry relative="1" as="geometry" />
        </mxCell>
        <mxCell id="-t4GW8n7cNSp23lOn8YB-3" style="edgeStyle=orthogonalEdgeStyle;rounded=0;orthogonalLoop=1;jettySize=auto;html=1;exitX=0.5;exitY=1;exitDx=0;exitDy=0;exitPerimeter=0;entryX=0.5;entryY=0;entryDx=0;entryDy=0;entryPerimeter=0;" parent="1" source="7lm6hXblk5zsbcoGaR_Y-11" target="7lm6hXblk5zsbcoGaR_Y-17" edge="1">
          <mxGeometry relative="1" as="geometry" />
        </mxCell>
        <mxCell id="9zit2VCC50n5VqCvSAki-1" value="" style="endArrow=classic;html=1;rounded=0;dashed=1;entryX=1;entryY=0.75;entryDx=0;entryDy=0;entryPerimeter=0;exitX=0.137;exitY=0.244;exitDx=0;exitDy=0;exitPerimeter=0;" edge="1" parent="1" source="7lm6hXblk5zsbcoGaR_Y-17" target="7lm6hXblk5zsbcoGaR_Y-11">
          <mxGeometry width="50" height="50" relative="1" as="geometry">
            <mxPoint x="-250" y="620" as="sourcePoint" />
            <mxPoint x="-151" y="290" as="targetPoint" />
          </mxGeometry>
        </mxCell>
        <mxCell id="9zit2VCC50n5VqCvSAki-2" value="messaging&lt;br&gt;[RabbitMQ]" style="edgeLabel;html=1;align=center;verticalAlign=middle;resizable=0;points=[];" vertex="1" connectable="0" parent="9zit2VCC50n5VqCvSAki-1">
          <mxGeometry x="0.5888" relative="1" as="geometry">
            <mxPoint x="22" y="47" as="offset" />
          </mxGeometry>
        </mxCell>
      </root>
    </mxGraphModel>
  </diagram>
</mxfile>
